  0
SECTION
  2
HEADER
  9
$ACADVER
  1
AC1015
  9
$ACADMAINTVER
 70
     6
  9
$DWGCODEPAGE
  3
ANSI_1252
  9
$INSBASE
 10
0.0
 20
0.0
 30
0.0
  9
$EXTMIN
 10
0.0
 20
0.0
 30
0.0
  9
$EXTMAX
 10
44.0
 20
34.0
 30
0.0
  9
$LIMMIN
 10
0.0
 20
0.0
  9
$LIMMAX
 10
44.0
 20
34.0
  9
$ORTHOMODE
 70
     0
  9
$REGENMODE
 70
     1
  9
$FILLMODE
 70
     1
  9
$QTEXTMODE
 70
     0
  9
$MIRRTEXT
 70
     1
  9
$LTSCALE
 40
1.0
  9
$ATTMODE
 70
     1
  9
$TEXTSIZE
 40
0.1377952756
  9
$TRACEWID
 40
0.05
  9
$TEXTSTYLE
  7
Standard
  9
$CLAYER
  8
0
  9
$CELTYPE
  6
ByLayer
  9
$CECOLOR
 62
   256
  9
$CELTSCALE
 40
1.0
  9
$DISPSILH
 70
     0
  9
$DIMSCALE
 40
1.0
  9
$DIMASZ
 40
0.13
  9
$DIMEXO
 40
0.05
  9
$DIMDLI
 40
0.38
  9
$DIMRND
 40
0.0
  9
$DIMDLE
 40
0.0
  9
$DIMEXE
 40
0.125
  9
$DIMTP
 40
0.0
  9
$DIMTM
 40
0.0
  9
$DIMTXT
 40
0.1377952756
  9
$DIMCEN
 40
0.09
  9
$DIMTSZ
 40
0.0
  9
$DIMTOL
 70
     0
  9
$DIMLIM
 70
     0
  9
$DIMTIH
 70
     1
  9
$DIMTOH
 70
     1
  9
$DIMSE1
 70
     0
  9
$DIMSE2
 70
     0
  9
$DIMTAD
 70
     1
  9
$DIMZIN
 70
     1
  9
$DIMBLK
  1

  9
$DIMASO
 70
     1
  9
$DIMSHO
 70
     1
  9
$DIMPOST
  1

  9
$DIMAPOST
  1

  9
$DIMALT
 70
     0
  9
$DIMALTD
 70
     2
  9
$DIMALTF
 40
25.4
  9
$DIMLFAC
 40
1.0
  9
$DIMTOFL
 70
     0
  9
$DIMTVP
 40
0.0
  9
$DIMTIX
 70
     0
  9
$DIMSOXD
 70
     0
  9
$DIMSAH
 70
     0
  9
$DIMBLK1
  1

  9
$DIMBLK2
  1

  9
$DIMSTYLE
  2
Standard
  9
$DIMCLRD
 70
     0
  9
$DIMCLRE
 70
     0
  9
$DIMCLRT
 70
     0
  9
$DIMTFAC
 40
1.0
  9
$DIMGAP
 40
0.06
  9
$DIMJUST
 70
     0
  9
$DIMSD1
 70
     0
  9
$DIMSD2
 70
     0
  9
$DIMTOLJ
 70
     1
  9
$DIMTZIN
 70
     1
  9
$DIMALTZ
 70
     0
  9
$DIMALTTZ
 70
     0
  9
$DIMUPT
 70
     0
  9
$DIMDEC
 70
     0
  9
$DIMTDEC
 70
     4
  9
$DIMALTU
 70
     2
  9
$DIMALTTD
 70
     2
  9
$DIMTXSTY
  7
Standard
  9
$DIMAUNIT
 70
     0
  9
$DIMADEC
 70
     0
  9
$DIMALTRND
 40
0.0
  9
$DIMAZIN
 70
     0
  9
$DIMDSEP
 70
    46
  9
$DIMATFIT
 70
     3
  9
$DIMFRAC
 70
     0
  9
$DIMLDRBLK
  1

  9
$DIMLUNIT
 70
     2
  9
$DIMLWD
 70
    -2
  9
$DIMLWE
 70
    -2
  9
$DIMTMOVE
 70
     0
  9
$LUNITS
 70
     2
  9
$LUPREC
 70
     4
  9
$SKETCHINC
 40
0.1
  9
$FILLETRAD
 40
0.5
  9
$AUNITS
 70
     0
  9
$AUPREC
 70
     0
  9
$MENU
  1
.
  9
$ELEVATION
 40
0.0
  9
$PELEVATION
 40
0.0
  9
$THICKNESS
 40
0.0
  9
$LIMCHECK
 70
     0
  9
$CHAMFERA
 40
0.0
  9
$CHAMFERB
 40
0.0
  9
$CHAMFERC
 40
0.0
  9
$CHAMFERD
 40
0.0
  9
$SKPOLY
 70
     0
  9
$TDCREATE
 40
2459517.781665544
  9
$TDUCREATE
 40
2459517.948332211
  9
$TDUPDATE
 40
2459517.781667349
  9
$TDUUPDATE
 40
2459517.948334016
  9
$TDINDWG
 40
0.0000000116
  9
$TDUSRTIMER
 40
0.0000000116
  9
$USRTIMER
 70
     1
  9
$ANGBASE
 50
0.0
  9
$ANGDIR
 70
     0
  9
$PDMODE
 70
     0
  9
$PDSIZE
 40
-1.0
  9
$PLINEWID
 40
0.0
  9
$SPLFRAME
 70
     0
  9
$SPLINETYPE
 70
     6
  9
$SPLINESEGS
 70
     8
  9
$HANDSEED
  5
ED
  9
$SURFTAB1
 70
     6
  9
$SURFTAB2
 70
     6
  9
$SURFTYPE
 70
     6
  9
$SURFU
 70
     6
  9
$SURFV
 70
     6
  9
$UCSBASE
  2

  9
$UCSNAME
  2

  9
$UCSORG
 10
0.0
 20
0.0
 30
0.0
  9
$UCSXDIR
 10
1.0
 20
0.0
 30
0.0
  9
$UCSYDIR
 10
0.0
 20
1.0
 30
0.0
  9
$UCSORTHOREF
  2

  9
$UCSORTHOVIEW
 70
     0
  9
$UCSORGTOP
 10
0.0
 20
0.0
 30
0.0
  9
$UCSORGBOTTOM
 10
0.0
 20
0.0
 30
0.0
  9
$UCSORGLEFT
 10
0.0
 20
0.0
 30
0.0
  9
$UCSORGRIGHT
 10
0.0
 20
0.0
 30
0.0
  9
$UCSORGFRONT
 10
0.0
 20
0.0
 30
0.0
  9
$UCSORGBACK
 10
0.0
 20
0.0
 30
0.0
  9
$PUCSBASE
  2

  9
$PUCSNAME
  2

  9
$PUCSORG
 10
0.0
 20
0.0
 30
0.0
  9
$PUCSXDIR
 10
1.0
 20
0.0
 30
0.0
  9
$PUCSYDIR
 10
0.0
 20
1.0
 30
0.0
  9
$PUCSORTHOREF
  2

  9
$PUCSORTHOVIEW
 70
     0
  9
$PUCSORGTOP
 10
0.0
 20
0.0
 30
0.0
  9
$PUCSORGBOTTOM
 10
0.0
 20
0.0
 30
0.0
  9
$PUCSORGLEFT
 10
0.0
 20
0.0
 30
0.0
  9
$PUCSORGRIGHT
 10
0.0
 20
0.0
 30
0.0
  9
$PUCSORGFRONT
 10
0.0
 20
0.0
 30
0.0
  9
$PUCSORGBACK
 10
0.0
 20
0.0
 30
0.0
  9
$USERI1
 70
     0
  9
$USERI2
 70
     0
  9
$USERI3
 70
     0
  9
$USERI4
 70
     0
  9
$USERI5
 70
     0
  9
$USERR1
 40
0.0
  9
$USERR2
 40
0.0
  9
$USERR3
 40
0.0
  9
$USERR4
 40
0.0
  9
$USERR5
 40
0.0
  9
$WORLDVIEW
 70
     1
  9
$SHADEDGE
 70
     3
  9
$SHADEDIF
 70
    70
  9
$TILEMODE
 70
     1
  9
$MAXACTVP
 70
    64
  9
$PINSBASE
 10
0.0
 20
0.0
 30
0.0
  9
$PLIMCHECK
 70
     0
  9
$PEXTMIN
 10
0.0
 20
0.0
 30
0.0
  9
$PEXTMAX
 10
44.0
 20
34.0
 30
0.0
  9
$PLIMMIN
 10
0.0
 20
0.0
  9
$PLIMMAX
 10
44.0
 20
34.0
  9
$UNITMODE
 70
     0
  9
$VISRETAIN
 70
     1
  9
$PLINEGEN
 70
     0
  9
$PSLTSCALE
 70
     1
  9
$TREEDEPTH
 70
  3020
  9
$CMLSTYLE
  2
Standard
  9
$CMLJUST
 70
     0
  9
$CMLSCALE
 40
1.0
  9
$PROXYGRAPHICS
 70
     1
  9
$MEASUREMENT
 70
     0
  9
$CELWEIGHT
370
    -1
  9
$ENDCAPS
280
     0
  9
$JOINSTYLE
280
     0
  9
$LWDISPLAY
290
     1
  9
$INSUNITS
 70
     1
  9
$HYPERLINKBASE
  1

  9
$STYLESHEET
  1

  9
$XEDIT
290
     1
  9
$CEPSNTYPE
380
     0
  9
$PSTYLEMODE
290
     1
  9
$FINGERPRINTGUID
  2
{67acdf2f-1f2d-4138-9532-06f8baec582f}
  9
$VERSIONGUID
  2
{FAEB1C32-E019-11D5-929B-00C0DF256EC4}
  9
$EXTNAMES
290
     1
  9
$PSVPSCALE
 40
0.0
  9
$OLESTARTUP
290
     0
  0
ENDSEC
  0
SECTION
  2
CLASSES
  0
CLASS
  1
ACDBDICTIONARYWDFLT
  2
AcDbDictionaryWithDefault
  3
ObjectDBX Classes
 90
        0
280
     0
281
     0
  0
CLASS
  1
VISUALSTYLE
  2
AcDbVisualStyle
  3
ObjectDBX Classes
 90
     4095
280
     0
281
     0
  0
CLASS
  1
MATERIAL
  2
AcDbMaterial
  3
ObjectDBX Classes
 90
     1153
280
     0
281
     0
  0
CLASS
  1
SCALE
  2
AcDbScale
  3
ObjectDBX Classes
 90
     1153
280
     0
281
     0
  0
CLASS
  1
TABLESTYLE
  2
AcDbTableStyle
  3
ObjectDBX Classes
 90
     4095
280
     0
281
     0
  0
CLASS
  1
MLEADERSTYLE
  2
AcDbMLeaderStyle
  3
ACDB_MLEADERSTYLE_CLASS
 90
     4095
280
     0
281
     0
  0
CLASS
  1
SUN
  2
AcDbSun
  3
SCENEOE
 90
     1153
280
     0
281
     0
  0
CLASS
  1
ACDBPLACEHOLDER
  2
AcDbPlaceHolder
  3
ObjectDBX Classes
 90
        0
280
     0
281
     0
  0
CLASS
  1
LAYOUT
  2
AcDbLayout
  3
ObjectDBX Classes
 90
        0
280
     0
281
     0
  0
ENDSEC
  0
SECTION
  2
TABLES
  0
TABLE
  2
VPORT
  5
8
330
0
100
AcDbSymbolTable
 70
     1
  0
VPORT
  5
29
330
8
100
AcDbSymbolTableRecord
100
AcDbViewportTableRecord
  2
*Active
 70
     0
 10
0.0
 20
0.0
 11
1.0
 21
1.0
 12
22.0
 22
17.0
 13
0.0
 23
0.0
 14
0.5
 24
0.5
 15
0.5
 25
0.5
 16
0.0
 26
0.0
 36
1.0
 17
0.0
 27
0.0
 37
0.0
 40
34.0
 41
1.2941176471
 42
50.0
 43
0.0
 44
0.0
 50
0.0
 51
0.0
 71
     0
 72
  2000
 73
     1
 74
     3
 75
     0
 76
     0
 77
     0
 78
     0
281
     0
 65
     1
110
0.0
120
0.0
130
0.0
111
1.0
121
0.0
131
0.0
112
0.0
122
1.0
132
0.0
 79
     0
146
0.0
  0
ENDTAB
  0
TABLE
  2
LTYPE
  5
5
330
0
100
AcDbSymbolTable
 70
     6
  0
LTYPE
  5
14
330
5
100
AcDbSymbolTableRecord
100
AcDbLinetypeTableRecord
  2
ByBlock
 70
     0
  3

 72
    65
 73
     0
 40
0.0
  0
LTYPE
  5
15
330
5
100
AcDbSymbolTableRecord
100
AcDbLinetypeTableRecord
  2
ByLayer
 70
     0
  3

 72
    65
 73
     0
 40
0.0
  0
LTYPE
  5
16
330
5
100
AcDbSymbolTableRecord
100
AcDbLinetypeTableRecord
  2
Continuous
 70
     0
  3
Solid line
 72
    65
 73
     0
 40
0.0
  0
LTYPE
  5
6E
330
5
100
AcDbSymbolTableRecord
100
AcDbLinetypeTableRecord
  2
HIDDEN
 70
     0
  3
Hidden __ __ __ __ __ __ __ __ __ __ __ __ __ __
 72
    65
 73
     2
 40
0.075
 49
0.05
 74
     0
 49
-0.025
 74
     0
  0
LTYPE
  5
6F
330
5
100
AcDbSymbolTableRecord
100
AcDbLinetypeTableRecord
  2
PHANTOM
 70
     0
  3
Phantom ______  __  __  ______  __  __  ______
 72
    65
 73
     6
 40
0.5
 49
0.25
 74
     0
 49
-0.05
 74
     0
 49
0.05
 74
     0
 49
-0.05
 74
     0
 49
0.05
 74
     0
 49
-0.05
 74
     0
  0
LTYPE
  5
70
330
5
100
AcDbSymbolTableRecord
100
AcDbLinetypeTableRecord
  2
CENTER
 70
     0
  3
Center ____ _ ____ _ ____ _ ____ _ ____ _ ____
 72
    65
 73
     4
 40
0.4
 49
0.25
 74
     0
 49
-0.05
 74
     0
 49
0.05
 74
     0
 49
-0.05
 74
     0
  0
LTYPE
  5
71
330
5
100
AcDbSymbolTableRecord
100
AcDbLinetypeTableRecord
  2
CENTERX2
 70
     0
  3
Center (2x) ________  __  ________  __  _____
 72
    65
 73
     4
 40
0.8
 49
0.5
 74
     0
 49
-0.1
 74
     0
 49
0.1
 74
     0
 49
-0.1
 74
     0
  0
LTYPE
  5
72
330
5
100
AcDbSymbolTableRecord
100
AcDbLinetypeTableRecord
  2
DOT2
 70
     0
  3
Dot (.5x) ........................................
 72
    65
 73
     2
 40
0.025
 49
0.0
 74
     0
 49
-0.025
 74
     0
  0
ENDTAB
  0
TABLE
  2
LAYER
  5
2
330
0
100
AcDbSymbolTable
 70
     3
  0
LAYER
  5
10
330
2
100
AcDbSymbolTableRecord
100
AcDbLayerTableRecord
  2
0
 70
     0
 62
     7
  6
Continuous
370
    -3
390
F
  0
LAYER
  5
73
330
2
100
AcDbSymbolTableRecord
100
AcDbLayerTableRecord
  2
SLD-0_0
 70
     0
 62
   179
  6
Continuous
370
    -3
390
F
  0
LAYER
  5
74
330
2
100
AcDbSymbolTableRecord
100
AcDbLayerTableRecord
  2
SLD-0
 70
     0
 62
   179
  6
Continuous
370
    -3
390
F
  0
ENDTAB
  0
TABLE
  2
STYLE
  5
3
330
0
100
AcDbSymbolTable
 70
     2
  0
STYLE
  5
11
330
3
100
AcDbSymbolTableRecord
100
AcDbTextStyleTableRecord
  2
Standard
 70
     0
 40
0.0
 41
1.0
 50
0.0
 71
     0
 42
0.1377952756
  3
txt
  4

  0
STYLE
  5
E5
330
3
100
AcDbSymbolTableRecord
100
AcDbTextStyleTableRecord
  2
SLDTEXTSTYLE0
 70
     0
 40
0.0
 41
0.7
 50
0.0
 71
     0
 42
0.1377952756
  3
TXT
  4

  0
ENDTAB
  0
TABLE
  2
VIEW
  5
6
330
0
100
AcDbSymbolTable
 70
     0
  0
ENDTAB
  0
TABLE
  2
UCS
  5
7
330
0
100
AcDbSymbolTable
 70
     0
  0
ENDTAB
  0
TABLE
  2
APPID
  5
9
330
0
100
AcDbSymbolTable
 70
     1
  0
APPID
  5
12
330
9
100
AcDbSymbolTableRecord
100
AcDbRegAppTableRecord
  2
ACAD
 70
     0
  0
ENDTAB
  0
TABLE
  2
DIMSTYLE
  5
A
330
0
100
AcDbSymbolTable
 70
     1
100
AcDbDimStyleTable
  0
DIMSTYLE
105
27
330
A
100
AcDbSymbolTableRecord
100
AcDbDimStyleTableRecord
  2
Standard
 70
     0
178
     0
340
11
  0
ENDTAB
  0
TABLE
  2
BLOCK_RECORD
  5
1
330
0
100
AcDbSymbolTable
 70
     0
  0
BLOCK_RECORD
  5
1F
330
1
100
AcDbSymbolTableRecord
100
AcDbBlockTableRecord
  2
*Model_Space
340
22
  0
BLOCK_RECORD
  5
1B
330
1
100
AcDbSymbolTableRecord
100
AcDbBlockTableRecord
  2
*Paper_Space
340
1E
  0
ENDTAB
  0
ENDSEC
  0
SECTION
  2
BLOCKS
  0
BLOCK
  5
20
330
1F
100
AcDbEntity
  8
0
100
AcDbBlockBegin
  2
*Model_Space
 70
     0
 10
0.0
 20
0.0
 30
0.0
  3
*Model_Space
  1

  0
ENDBLK
  5
21
330
1F
100
AcDbEntity
  8
0
100
AcDbBlockEnd
  0
BLOCK
  5
1C
330
1B
100
AcDbEntity
 67
     1
  8
0
100
AcDbBlockBegin
  2
*Paper_Space
 70
     0
 10
0.0
 20
0.0
 30
0.0
  3
*Paper_Space
  1

  0
ENDBLK
  5
1D
330
1B
100
AcDbEntity
 67
     1
  8
0
100
AcDbBlockEnd
  0
ENDSEC
  0
SECTION
  2
ENTITIES
  0
LINE
  5
75
330
1F
100
AcDbEntity
  8
SLD-0
 62
   179
100
AcDbLine
 10
306.385
 20
98.3298
 30
0.0
 11
306.5
 21
98.3259
 31
0.0
  0
LINE
  5
76
330
1F
100
AcDbEntity
  8
SLD-0
 62
   179
100
AcDbLine
 10
306.5
 20
98.3259
 30
0.0
 11
306.616
 21
98.3121
 31
0.0
  0
LINE
  5
77
330
1F
100
AcDbEntity
  8
SLD-0
 62
   179
100
AcDbLine
 10
306.616
 20
98.3121
 30
0.0
 11
306.732
 21
98.2885
 31
0.0
  0
LINE
  5
78
330
1F
100
AcDbEntity
  8
SLD-0
 62
   179
100
AcDbLine
 10
306.732
 20
98.2885
 30
0.0
 11
306.844
 21
98.2567
 31
0.0
  0
LINE
  5
79
330
1F
100
AcDbEntity
  8
SLD-0
 62
   179
100
AcDbLine
 10
306.844
 20
98.2567
 30
0.0
 11
306.954
 21
98.2169
 31
0.0
  0
LINE
  5
7A
330
1F
100
AcDbEntity
  8
SLD-0
 62
   179
100
AcDbLine
 10
306.954
 20
98.2169
 30
0.0
 11
307.06
 21
98.1675
 31
0.0
  0
LINE
  5
7B
330
1F
100
AcDbEntity
  8
SLD-0
 62
   179
100
AcDbLine
 10
307.06
 20
98.1675
 30
0.0
 11
307.162
 21
98.1107
 31
0.0
  0
LINE
  5
7C
330
1F
100
AcDbEntity
  8
SLD-0
 62
   179
100
AcDbLine
 10
307.162
 20
98.1107
 30
0.0
 11
307.259
 21
98.0461
 31
0.0
  0
LINE
  5
7D
330
1F
100
AcDbEntity
  8
SLD-0
 62
   179
100
AcDbLine
 10
307.259
 20
98.0461
 30
0.0
 11
307.351
 21
97.9731
 31
0.0
  0
LINE
  5
7E
330
1F
100
AcDbEntity
  8
SLD-0
 62
   179
100
AcDbLine
 10
307.351
 20
97.9731
 30
0.0
 11
307.436
 21
97.8944
 31
0.0
  0
LINE
  5
7F
330
1F
100
AcDbEntity
  8
SLD-0
 62
   179
100
AcDbLine
 10
307.436
 20
97.8944
 30
0.0
 11
307.516
 21
97.809
 31
0.0
  0
LINE
  5
80
330
1F
100
AcDbEntity
  8
SLD-0
 62
   179
100
AcDbLine
 10
307.516
 20
97.809
 30
0.0
 11
307.588
 21
97.7166
 31
0.0
  0
LINE
  5
81
330
1F
100
AcDbEntity
  8
SLD-0
 62
   179
100
AcDbLine
 10
307.588
 20
97.7166
 30
0.0
 11
307.653
 21
97.6189
 31
0.0
  0
LINE
  5
82
330
1F
100
AcDbEntity
  8
SLD-0
 62
   179
100
AcDbLine
 10
307.653
 20
97.6189
 30
0.0
 11
307.709
 21
97.5169
 31
0.0
  0
LINE
  5
83
330
1F
100
AcDbEntity
  8
SLD-0
 62
   179
100
AcDbLine
 10
307.709
 20
97.5169
 30
0.0
 11
307.759
 21
97.4122
 31
0.0
  0
LINE
  5
84
330
1F
100
AcDbEntity
  8
SLD-0
 62
   179
100
AcDbLine
 10
307.759
 20
97.4122
 30
0.0
 11
307.8
 21
97.3018
 31
0.0
  0
LINE
  5
85
330
1F
100
AcDbEntity
  8
SLD-0
 62
   179
100
AcDbLine
 10
307.8
 20
97.3018
 30
0.0
 11
307.83
 21
97.1889
 31
0.0
  0
LINE
  5
86
330
1F
100
AcDbEntity
  8
SLD-0
 62
   179
100
AcDbLine
 10
307.83
 20
97.1889
 30
0.0
 11
307.854
 21
97.0746
 31
0.0
  0
LINE
  5
87
330
1F
100
AcDbEntity
  8
SLD-0
 62
   179
100
AcDbLine
 10
307.854
 20
97.0746
 30
0.0
 11
307.867
 21
96.9589
 31
0.0
  0
LINE
  5
88
330
1F
100
AcDbEntity
  8
SLD-0
 62
   179
100
AcDbLine
 10
307.867
 20
96.9589
 30
0.0
 11
307.873
 21
96.8417
 31
0.0
  0
LINE
  5
89
330
1F
100
AcDbEntity
  8
SLD-0
 62
   179
100
AcDbLine
 10
307.873
 20
96.8417
 30
0.0
 11
307.873
 21
1.59163
 31
0.0
  0
LINE
  5
8A
330
1F
100
AcDbEntity
  8
SLD-0
 62
   179
100
AcDbLine
 10
307.873
 20
1.59163
 30
0.0
 11
307.867
 21
1.4745
 31
0.0
  0
LINE
  5
8B
330
1F
100
AcDbEntity
  8
SLD-0
 62
   179
100
AcDbLine
 10
307.867
 20
1.4745
 30
0.0
 11
307.854
 21
1.35874
 31
0.0
  0
LINE
  5
8C
330
1F
100
AcDbEntity
  8
SLD-0
 62
   179
100
AcDbLine
 10
307.854
 20
1.35874
 30
0.0
 11
307.83
 21
1.24299
 31
0.0
  0
LINE
  5
8D
330
1F
100
AcDbEntity
  8
SLD-0
 62
   179
100
AcDbLine
 10
307.83
 20
1.24299
 30
0.0
 11
307.8
 21
1.13137
 31
0.0
  0
LINE
  5
8E
330
1F
100
AcDbEntity
  8
SLD-0
 62
   179
100
AcDbLine
 10
307.8
 20
1.13137
 30
0.0
 11
307.759
 21
1.02113
 31
0.0
  0
LINE
  5
8F
330
1F
100
AcDbEntity
  8
SLD-0
 62
   179
100
AcDbLine
 10
307.759
 20
1.02113
 30
0.0
 11
307.709
 21
0.915017
 31
0.0
  0
LINE
  5
90
330
1F
100
AcDbEntity
  8
SLD-0
 62
   179
100
AcDbLine
 10
307.709
 20
0.915017
 30
0.0
 11
307.653
 21
0.813043
 31
0.0
  0
LINE
  5
91
330
1F
100
AcDbEntity
  8
SLD-0
 62
   179
100
AcDbLine
 10
307.653
 20
0.813043
 30
0.0
 11
307.588
 21
0.71658
 31
0.0
  0
LINE
  5
92
330
1F
100
AcDbEntity
  8
SLD-0
 62
   179
100
AcDbLine
 10
307.588
 20
0.71658
 30
0.0
 11
307.516
 21
0.624251
 31
0.0
  0
LINE
  5
93
330
1F
100
AcDbEntity
  8
SLD-0
 62
   179
100
AcDbLine
 10
307.516
 20
0.624251
 30
0.0
 11
307.436
 21
0.538812
 31
0.0
  0
LINE
  5
94
330
1F
100
AcDbEntity
  8
SLD-0
 62
   179
100
AcDbLine
 10
307.436
 20
0.538812
 30
0.0
 11
307.351
 21
0.458886
 31
0.0
  0
LINE
  5
95
330
1F
100
AcDbEntity
  8
SLD-0
 62
   179
100
AcDbLine
 10
307.351
 20
0.458886
 30
0.0
 11
307.259
 21
0.38723
 31
0.0
  0
LINE
  5
96
330
1F
100
AcDbEntity
  8
SLD-0
 62
   179
100
AcDbLine
 10
307.259
 20
0.38723
 30
0.0
 11
307.162
 21
0.322461
 31
0.0
  0
LINE
  5
97
330
1F
100
AcDbEntity
  8
SLD-0
 62
   179
100
AcDbLine
 10
307.162
 20
0.322461
 30
0.0
 11
307.06
 21
0.265961
 31
0.0
  0
LINE
  5
98
330
1F
100
AcDbEntity
  8
SLD-0
 62
   179
100
AcDbLine
 10
307.06
 20
0.265961
 30
0.0
 11
306.954
 21
0.216352
 31
0.0
  0
LINE
  5
99
330
1F
100
AcDbEntity
  8
SLD-0
 62
   179
100
AcDbLine
 10
306.954
 20
0.216352
 30
0.0
 11
306.844
 21
0.175011
 31
0.0
  0
LINE
  5
9A
330
1F
100
AcDbEntity
  8
SLD-0
 62
   179
100
AcDbLine
 10
306.844
 20
0.175011
 30
0.0
 11
306.732
 21
0.144694
 31
0.0
  0
LINE
  5
9B
330
1F
100
AcDbEntity
  8
SLD-0
 62
   179
100
AcDbLine
 10
306.732
 20
0.144694
 30
0.0
 11
306.616
 21
0.121267
 31
0.0
  0
LINE
  5
9C
330
1F
100
AcDbEntity
  8
SLD-0
 62
   179
100
AcDbLine
 10
306.616
 20
0.121267
 30
0.0
 11
306.5
 21
0.107487
 31
0.0
  0
LINE
  5
9D
330
1F
100
AcDbEntity
  8
SLD-0
 62
   179
100
AcDbLine
 10
306.5
 20
0.107487
 30
0.0
 11
306.385
 21
0.103353
 31
0.0
  0
LINE
  5
9E
330
1F
100
AcDbEntity
  8
SLD-0
 62
   179
100
AcDbLine
 10
306.385
 20
0.103353
 30
0.0
 11
1.58337
 21
0.103353
 31
0.0
  0
LINE
  5
9F
330
1F
100
AcDbEntity
  8
SLD-0
 62
   179
100
AcDbLine
 10
1.58337
 20
0.103353
 30
0.0
 11
1.46623
 21
0.107487
 31
0.0
  0
LINE
  5
A0
330
1F
100
AcDbEntity
  8
SLD-0
 62
   179
100
AcDbLine
 10
1.46623
 20
0.107487
 30
0.0
 11
1.35048
 21
0.121267
 31
0.0
  0
LINE
  5
A1
330
1F
100
AcDbEntity
  8
SLD-0
 62
   179
100
AcDbLine
 10
1.35048
 20
0.121267
 30
0.0
 11
1.2361
 21
0.144694
 31
0.0
  0
LINE
  5
A2
330
1F
100
AcDbEntity
  8
SLD-0
 62
   179
100
AcDbLine
 10
1.2361
 20
0.144694
 30
0.0
 11
1.1231
 21
0.175011
 31
0.0
  0
LINE
  5
A3
330
1F
100
AcDbEntity
  8
SLD-0
 62
   179
100
AcDbLine
 10
1.1231
 20
0.175011
 30
0.0
 11
1.01286
 21
0.216352
 31
0.0
  0
LINE
  5
A4
330
1F
100
AcDbEntity
  8
SLD-0
 62
   179
100
AcDbLine
 10
1.01286
 20
0.216352
 30
0.0
 11
0.908128
 21
0.265961
 31
0.0
  0
LINE
  5
A5
330
1F
100
AcDbEntity
  8
SLD-0
 62
   179
100
AcDbLine
 10
0.908128
 20
0.265961
 30
0.0
 11
0.806154
 21
0.322461
 31
0.0
  0
LINE
  5
A6
330
1F
100
AcDbEntity
  8
SLD-0
 62
   179
100
AcDbLine
 10
0.806154
 20
0.322461
 30
0.0
 11
0.708311
 21
0.38723
 31
0.0
  0
LINE
  5
A7
330
1F
100
AcDbEntity
  8
SLD-0
 62
   179
100
AcDbLine
 10
0.708311
 20
0.38723
 30
0.0
 11
0.615982
 21
0.458886
 31
0.0
  0
LINE
  5
A8
330
1F
100
AcDbEntity
  8
SLD-0
 62
   179
100
AcDbLine
 10
0.615982
 20
0.458886
 30
0.0
 11
0.530546
 21
0.538812
 31
0.0
  0
LINE
  5
A9
330
1F
100
AcDbEntity
  8
SLD-0
 62
   179
100
AcDbLine
 10
0.530546
 20
0.538812
 30
0.0
 11
0.451997
 21
0.624251
 31
0.0
  0
LINE
  5
AA
330
1F
100
AcDbEntity
  8
SLD-0
 62
   179
100
AcDbLine
 10
0.451997
 20
0.624251
 30
0.0
 11
0.378961
 21
0.71658
 31
0.0
  0
LINE
  5
AB
330
1F
100
AcDbEntity
  8
SLD-0
 62
   179
100
AcDbLine
 10
0.378961
 20
0.71658
 30
0.0
 11
0.314193
 21
0.813043
 31
0.0
  0
LINE
  5
AC
330
1F
100
AcDbEntity
  8
SLD-0
 62
   179
100
AcDbLine
 10
0.314193
 20
0.813043
 30
0.0
 11
0.257693
 21
0.915017
 31
0.0
  0
LINE
  5
AD
330
1F
100
AcDbEntity
  8
SLD-0
 62
   179
100
AcDbLine
 10
0.257693
 20
0.915017
 30
0.0
 11
0.208084
 21
1.02113
 31
0.0
  0
LINE
  5
AE
330
1F
100
AcDbEntity
  8
SLD-0
 62
   179
100
AcDbLine
 10
0.208084
 20
1.02113
 30
0.0
 11
0.168121
 21
1.13137
 31
0.0
  0
LINE
  5
AF
330
1F
100
AcDbEntity
  8
SLD-0
 62
   179
100
AcDbLine
 10
0.168121
 20
1.13137
 30
0.0
 11
0.136426
 21
1.24299
 31
0.0
  0
LINE
  5
B0
330
1F
100
AcDbEntity
  8
SLD-0
 62
   179
100
AcDbLine
 10
0.136426
 20
1.24299
 30
0.0
 11
0.112999
 21
1.35874
 31
0.0
  0
LINE
  5
B1
330
1F
100
AcDbEntity
  8
SLD-0
 62
   179
100
AcDbLine
 10
0.112999
 20
1.35874
 30
0.0
 11
0.0992188
 21
1.4745
 31
0.0
  0
LINE
  5
B2
330
1F
100
AcDbEntity
  8
SLD-0
 62
   179
100
AcDbLine
 10
0.0992188
 20
1.4745
 30
0.0
 11
0.0950846
 21
1.59026
 31
0.0
  0
LINE
  5
B3
330
1F
100
AcDbEntity
  8
SLD-0
 62
   179
100
AcDbLine
 10
0.0950846
 20
1.59026
 30
0.0
 11
0.0950846
 21
96.8417
 31
0.0
  0
LINE
  5
B4
330
1F
100
AcDbEntity
  8
SLD-0
 62
   179
100
AcDbLine
 10
0.0950846
 20
96.8417
 30
0.0
 11
0.0992188
 21
96.9589
 31
0.0
  0
LINE
  5
B5
330
1F
100
AcDbEntity
  8
SLD-0
 62
   179
100
AcDbLine
 10
0.0992188
 20
96.9589
 30
0.0
 11
0.112999
 21
97.0746
 31
0.0
  0
LINE
  5
B6
330
1F
100
AcDbEntity
  8
SLD-0
 62
   179
100
AcDbLine
 10
0.112999
 20
97.0746
 30
0.0
 11
0.136426
 21
97.1889
 31
0.0
  0
LINE
  5
B7
330
1F
100
AcDbEntity
  8
SLD-0
 62
   179
100
AcDbLine
 10
0.136426
 20
97.1889
 30
0.0
 11
0.168121
 21
97.3018
 31
0.0
  0
LINE
  5
B8
330
1F
100
AcDbEntity
  8
SLD-0
 62
   179
100
AcDbLine
 10
0.168121
 20
97.3018
 30
0.0
 11
0.208084
 21
97.4122
 31
0.0
  0
LINE
  5
B9
330
1F
100
AcDbEntity
  8
SLD-0
 62
   179
100
AcDbLine
 10
0.208084
 20
97.4122
 30
0.0
 11
0.257693
 21
97.5169
 31
0.0
  0
LINE
  5
BA
330
1F
100
AcDbEntity
  8
SLD-0
 62
   179
100
AcDbLine
 10
0.257693
 20
97.5169
 30
0.0
 11
0.314193
 21
97.6189
 31
0.0
  0
LINE
  5
BB
330
1F
100
AcDbEntity
  8
SLD-0
 62
   179
100
AcDbLine
 10
0.314193
 20
97.6189
 30
0.0
 11
0.378961
 21
97.7166
 31
0.0
  0
LINE
  5
BC
330
1F
100
AcDbEntity
  8
SLD-0
 62
   179
100
AcDbLine
 10
0.378961
 20
97.7166
 30
0.0
 11
0.451997
 21
97.809
 31
0.0
  0
LINE
  5
BD
330
1F
100
AcDbEntity
  8
SLD-0
 62
   179
100
AcDbLine
 10
0.451997
 20
97.809
 30
0.0
 11
0.530546
 21
97.8944
 31
0.0
  0
LINE
  5
BE
330
1F
100
AcDbEntity
  8
SLD-0
 62
   179
100
AcDbLine
 10
0.530546
 20
97.8944
 30
0.0
 11
0.615982
 21
97.9731
 31
0.0
  0
LINE
  5
BF
330
1F
100
AcDbEntity
  8
SLD-0
 62
   179
100
AcDbLine
 10
0.615982
 20
97.9731
 30
0.0
 11
0.708311
 21
98.0461
 31
0.0
  0
LINE
  5
C0
330
1F
100
AcDbEntity
  8
SLD-0
 62
   179
100
AcDbLine
 10
0.708311
 20
98.0461
 30
0.0
 11
0.806154
 21
98.1107
 31
0.0
  0
LINE
  5
C1
330
1F
100
AcDbEntity
  8
SLD-0
 62
   179
100
AcDbLine
 10
0.806154
 20
98.1107
 30
0.0
 11
0.908128
 21
98.1675
 31
0.0
  0
LINE
  5
C2
330
1F
100
AcDbEntity
  8
SLD-0
 62
   179
100
AcDbLine
 10
0.908128
 20
98.1675
 30
0.0
 11
1.01286
 21
98.2169
 31
0.0
  0
LINE
  5
C3
330
1F
100
AcDbEntity
  8
SLD-0
 62
   179
100
AcDbLine
 10
1.01286
 20
98.2169
 30
0.0
 11
1.1231
 21
98.2567
 31
0.0
  0
LINE
  5
C4
330
1F
100
AcDbEntity
  8
SLD-0
 62
   179
100
AcDbLine
 10
1.1231
 20
98.2567
 30
0.0
 11
1.2361
 21
98.2885
 31
0.0
  0
LINE
  5
C5
330
1F
100
AcDbEntity
  8
SLD-0
 62
   179
100
AcDbLine
 10
1.2361
 20
98.2885
 30
0.0
 11
1.35048
 21
98.3121
 31
0.0
  0
LINE
  5
C6
330
1F
100
AcDbEntity
  8
SLD-0
 62
   179
100
AcDbLine
 10
1.35048
 20
98.3121
 30
0.0
 11
1.46623
 21
98.3259
 31
0.0
  0
LINE
  5
C7
330
1F
100
AcDbEntity
  8
SLD-0
 62
   179
100
AcDbLine
 10
1.46623
 20
98.3259
 30
0.0
 11
1.58337
 21
98.3298
 31
0.0
  0
LINE
  5
C8
330
1F
100
AcDbEntity
  8
SLD-0
 62
   179
100
AcDbLine
 10
1.58337
 20
98.3298
 30
0.0
 11
306.385
 21
98.3298
 31
0.0
  0
LINE
  5
C9
330
1F
100
AcDbEntity
  8
SLD-0_0
100
AcDbLine
 10
-7.9049154
 20
0.103353
 30
0.0
 11
-7.9049154
 21
98.3259
 31
0.0
  0
LINE
  5
CA
330
1F
100
AcDbEntity
  8
SLD-0_0
100
AcDbLine
 10
0.0992188
 20
-7.9007812
 30
0.0
 11
307.867
 21
-7.902413
 31
0.0
  0
LINE
  5
CB
330
1F
100
AcDbEntity
  8
SLD-0_0
100
AcDbLine
 10
0.112999
 20
106.3438144
 30
0.0
 11
307.873
 21
106.3438144
 31
0.0
  0
LINE
  5
CC
330
1F
100
AcDbEntity
  8
SLD-0_0
100
AcDbLine
 10
315.8769
 20
0.107487
 30
0.0
 11
315.8769
 21
98.3259
 31
0.0
  0
LINE
  5
CD
330
1F
100
AcDbEntity
  8
SLD-0_0
100
AcDbLine
 10
34.68337
 20
98.3298
 30
0.0
 11
44.5834307499
 21
98.3298
 31
0.0
  0
LINE
  5
CE
330
1F
100
AcDbEntity
  8
SLD-0_0
100
AcDbLine
 10
34.68337
 20
96.8417
 30
0.0
 11
34.68337
 21
98.3298
 31
0.0
  0
LINE
  5
CF
330
1F
100
AcDbEntity
  8
SLD-0_0
100
AcDbLine
 10
1.58337
 20
96.8417
 30
0.0
 11
34.68337
 21
96.8417
 31
0.0
  0
LINE
  5
D0
330
1F
100
AcDbEntity
  8
SLD-0_0
100
AcDbLine
 10
44.68337
 20
96.8417
 30
0.0
 11
44.68337
 21
98.3298
 31
0.0
  0
LINE
  5
D1
330
1F
100
AcDbEntity
  8
SLD-0_0
100
AcDbLine
 10
1.58337
 20
1.59026
 30
0.0
 11
306.385
 21
1.59163
 31
0.0
  0
LINE
  5
D2
330
1F
100
AcDbEntity
  8
SLD-0_0
100
AcDbLine
 10
306.385
 20
1.59163
 30
0.0
 11
306.385
 21
96.8417
 31
0.0
  0
LINE
  5
D3
330
1F
100
AcDbEntity
  8
SLD-0_0
100
AcDbLine
 10
44.68337
 20
96.8417
 30
0.0
 11
306.385
 21
96.8417
 31
0.0
  0
LINE
  5
D4
330
1F
100
AcDbEntity
  8
SLD-0_0
100
AcDbLine
 10
1.58337
 20
96.8417
 30
0.0
 11
1.58337
 21
1.59026
 31
0.0
  0
CIRCLE
  5
D5
330
1F
100
AcDbEntity
  8
SLD-0
100
AcDbCircle
 10
287.335
 20
77.7917
 30
0.0
 40
1.249999999999943
  0
CIRCLE
  5
D6
330
1F
100
AcDbEntity
  8
SLD-0
100
AcDbCircle
 10
287.335
 20
39.6917
 30
0.0
 40
1.249999999999943
  0
CIRCLE
  5
D7
330
1F
100
AcDbEntity
  8
SLD-0
100
AcDbCircle
 10
268.285
 20
20.6417
 30
0.0
 40
1.25
  0
CIRCLE
  5
D8
330
1F
100
AcDbEntity
  8
SLD-0
100
AcDbCircle
 10
239.71
 20
58.7417
 30
0.0
 40
1.249999999999972
  0
CIRCLE
  5
D9
330
1F
100
AcDbEntity
  8
SLD-0
100
AcDbCircle
 10
192.085
 20
77.7917
 30
0.0
 40
1.25
  0
CIRCLE
  5
DA
330
1F
100
AcDbEntity
  8
SLD-0
100
AcDbCircle
 10
196.848
 20
20.6417
 30
0.0
 40
1.249999999999972
  0
CIRCLE
  5
DB
330
1F
100
AcDbEntity
  8
SLD-0
100
AcDbCircle
 10
149.223
 20
39.6917
 30
0.0
 40
1.25
  0
CIRCLE
  5
DC
330
1F
100
AcDbEntity
  8
SLD-0
100
AcDbCircle
 10
115.885
 20
77.7917
 30
0.0
 40
1.25
  0
CIRCLE
  5
DD
330
1F
100
AcDbEntity
  8
SLD-0
100
AcDbCircle
 10
68.26
 20
58.7417
 30
0.0
 40
1.249999999999986
  0
CIRCLE
  5
DE
330
1F
100
AcDbEntity
  8
SLD-0
100
AcDbCircle
 10
20.635
 20
77.7917
 30
0.0
 40
1.249999999999996
  0
CIRCLE
  5
DF
330
1F
100
AcDbEntity
  8
SLD-0
100
AcDbCircle
 10
26.886
 20
39.6917
 30
0.0
 40
1.249999999999993
  0
CIRCLE
  5
E0
330
1F
100
AcDbEntity
  8
SLD-0
100
AcDbCircle
 10
44.448
 20
20.6417
 30
0.0
 40
1.249999999999993
  0
ARC
  5
E1
330
1F
100
AcDbEntity
  8
SLD-0_0
100
AcDbCircle
 10
307.8730122692
 20
98.3399144
 30
0.0
 40
8.003899999999998
100
AcDbArc
 50
359.899678109
 51
90.0000878292
  0
ARC
  5
E2
330
1F
100
AcDbEntity
  8
SLD-0_0
100
AcDbCircle
 10
0.112999
 20
98.3259
 30
0.0
 40
8.0179144
100
AcDbArc
 50
90.0
 51
180.0
  0
ARC
  5
E3
330
1F
100
AcDbEntity
  8
SLD-0_0
100
AcDbCircle
 10
307.867
 20
0.107487
 30
0.0
 40
8.009900000000007
100
AcDbArc
 50
270.0
 51
0.0
  0
ARC
  5
E4
330
1F
100
AcDbEntity
  8
SLD-0_0
100
AcDbCircle
 10
0.0992188
 20
0.103353
 30
0.0
 40
8.004134200000001
100
AcDbArc
 50
180.0
 51
270.0
  0
MTEXT
  5
E6
330
1F
100
AcDbEntity
  8
0
  6
Continuous
 62
     7
100
AcDbMText
 10
0.0
 20
1.6405296445
 30
0.0
 40
0.5882
 41
0.0
 71
     1
 72
     1
  1
SOLIDWORKS Educational Product.
  7
SLDTEXTSTYLE0
 73
     1
 44
1.0
  0
MTEXT
  5
E7
330
1F
100
AcDbEntity
  8
0
  6
Continuous
 62
     7
100
AcDbMText
 10
0.0
 20
0.7582296445
 30
0.0
 40
0.5882
 41
0.0
 71
     1
 72
     1
  1
For Instructional Use Only.
  7
SLDTEXTSTYLE0
 73
     1
 44
1.0
  0
MTEXT
  5
E8
330
1B
100
AcDbEntity
 67
     1
  8
SLD-0_0
 62
   179
100
AcDbMText
 10
0.0
 20
1.5965198566
 30
0.0
 40
0.5882
 41
0.0
 71
     1
 72
     1
  1
SOLIDWORKS Educational Product.
  7
SLDTEXTSTYLE0
 73
     1
 44
1.0
  0
MTEXT
  5
E9
330
1B
100
AcDbEntity
 67
     1
  8
SLD-0_0
 62
   179
100
AcDbMText
 10
0.0
 20
0.7142198566
 30
0.0
 40
0.5882
 41
0.0
 71
     1
 72
     1
  1
For Instructional Use Only.
  7
SLDTEXTSTYLE0
 73
     1
 44
1.0
  0
MTEXT
  5
EA
330
1B
100
AcDbEntity
 67
     1
  8
0
  6
Continuous
 62
     7
100
AcDbMText
 10
0.0
 20
1.6405296445
 30
0.0
 40
0.5882
 41
0.0
 71
     1
 72
     1
  1
SOLIDWORKS Educational Product.
  7
SLDTEXTSTYLE0
 73
     1
 44
1.0
  0
MTEXT
  5
EB
330
1B
100
AcDbEntity
 67
     1
  8
0
  6
Continuous
 62
     7
100
AcDbMText
 10
0.0
 20
0.7582296445
 30
0.0
 40
0.5882
 41
0.0
 71
     1
 72
     1
  1
For Instructional Use Only.
  7
SLDTEXTSTYLE0
 73
     1
 44
1.0
  0
ENDSEC
  0
SECTION
  2
OBJECTS
  0
DICTIONARY
  5
C
330
0
100
AcDbDictionary
281
     1
  3
ACAD_GROUP
350
D
  3
ACAD_LAYOUT
350
1A
  3
ACAD_MLINESTYLE
350
17
  3
ACAD_PLOTSETTINGS
350
19
  3
ACAD_PLOTSTYLENAME
350
E
  3
ACAD_SCALELIST
350
47
  3
DWGPROPS
350
EC
  0
DICTIONARY
  5
D
102
{ACAD_REACTORS
330
C
102
}
330
C
100
AcDbDictionary
281
     1
  0
DICTIONARY
  5
1A
102
{ACAD_REACTORS
330
C
102
}
330
C
100
AcDbDictionary
281
     1
  3
Model
350
22
  3
Sheet1
350
1E
  0
DICTIONARY
  5
17
102
{ACAD_REACTORS
330
C
102
}
330
C
100
AcDbDictionary
281
     1
  3
Standard
350
18
  0
DICTIONARY
  5
19
102
{ACAD_REACTORS
330
C
102
}
330
C
100
AcDbDictionary
281
     1
  0
ACDBDICTIONARYWDFLT
  5
E
102
{ACAD_REACTORS
330
C
102
}
330
C
100
AcDbDictionary
281
     1
  3
Normal
350
F
100
AcDbDictionaryWithDefault
340
F
  0
DICTIONARY
  5
47
102
{ACAD_REACTORS
330
C
102
}
330
C
100
AcDbDictionary
281
     1
  3
A0
350
48
  3
A1
350
49
  3
A2
350
4A
  3
A3
350
4B
  3
A4
350
4C
  3
A5
350
4D
  3
A6
350
4E
  3
A7
350
4F
  3
A8
350
50
  3
A9
350
51
  3
B0
350
52
  3
B1
350
53
  3
B2
350
54
  3
B3
350
55
  3
B4
350
56
  3
B5
350
57
  3
B6
350
58
  3
B7
350
59
  3
B8
350
5A
  3
B9
350
5B
  3
C0
350
5C
  3
C1
350
5D
  3
C2
350
5E
  3
C3
350
5F
  3
C4
350
60
  3
C5
350
61
  3
C6
350
62
  3
C7
350
63
  3
C8
350
64
  3
C9
350
65
  3
D0
350
66
  3
D1
350
67
  3
D2
350
68
  0
XRECORD
  5
EC
102
{ACAD_REACTORS
330
C
102
}
330
C
100
AcDbXrecord
280
     1
  1
DWGPROPS COOKIE
  2

  3

  4

  6

  7

  8
Neil
  9

300
=
301
=
302
=
303
=
304
=
305
=
306
=
307
=
308
=
309
=
 40
0.0
 41
2459517.948332211
 42
2459517.948334016
  1

 90
        0
  0
LAYOUT
  5
22
102
{ACAD_REACTORS
330
1A
102
}
330
1A
100
AcDbPlotSettings
  1

  2
none_device
  4
Letter_(8.50_x_11.00_Inches)
  6

 40
6.35
 41
6.35
 42
6.35000508
 43
6.35000508
 44
215.9
 45
279.4
 46
0.0
 47
0.0
 48
0.0
 49
0.0
140
0.0
141
0.0
142
1.0
143
1.0
 70
  1712
 72
     0
 73
     0
 74
     0
  7

 75
     0
147
1.0
148
0.0
149
0.0
100
AcDbLayout
  1
Model
 70
     1
 71
     0
 10
0.0
 20
0.0
 11
44.0
 21
34.0
 12
0.0
 22
0.0
 32
0.0
 14
0.0
 24
0.0
 34
0.0
 15
44.0
 25
34.0
 35
0.0
146
0.0
 13
0.0
 23
0.0
 33
0.0
 16
1.0
 26
0.0
 36
0.0
 17
0.0
 27
1.0
 37
0.0
 76
     0
330
1F
331
29
  0
LAYOUT
  5
1E
102
{ACAD_REACTORS
330
1A
102
}
330
1A
100
AcDbPlotSettings
  1

  2
none_device
  4
ANSI_E_(44.00_x_34.00_Inches)
  6

 40
6.35
 41
19.05
 42
6.3499746
 43
19.0499873
 44
1117.6
 45
863.6
 46
0.0
 47
0.0
 48
0.0
 49
0.0
140
0.0
141
0.0
142
1.0
143
1.0
 70
  4832
 72
     0
 73
     0
 74
     1
  7

 75
     0
147
1.0
148
0.0
149
0.0
100
AcDbLayout
  1
Sheet1
 70
     1
 71
     1
 10
0.0
 20
0.0
 11
44.0
 21
34.0
 12
0.0
 22
0.0
 32
0.0
 14
0.0
 24
0.0
 34
0.0
 15
44.0
 25
34.0
 35
0.0
146
0.0
 13
0.0
 23
0.0
 33
0.0
 16
1.0
 26
0.0
 36
0.0
 17
0.0
 27
1.0
 37
0.0
 76
     0
330
1B
  0
MLINESTYLE
  5
18
102
{ACAD_REACTORS
330
17
102
}
330
17
100
AcDbMlineStyle
  2
Standard
 70
     0
  3

 62
   256
 51
90.0
 52
90.0
 71
     2
 49
0.5
 62
   256
  6
BYLAYER
 49
-0.5
 62
   256
  6
BYLAYER
  0
ACDBPLACEHOLDER
  5
F
102
{ACAD_REACTORS
330
E
102
}
330
E
  0
SCALE
  5
48
102
{ACAD_REACTORS
330
47
102
}
330
47
100
AcDbScale
 70
     0
300
1:1
140
1.0
141
1.0
290
     1
  0
SCALE
  5
49
102
{ACAD_REACTORS
330
47
102
}
330
47
100
AcDbScale
 70
     0
300
1:2
140
1.0
141
2.0
290
     0
  0
SCALE
  5
4A
102
{ACAD_REACTORS
330
47
102
}
330
47
100
AcDbScale
 70
     0
300
1:4
140
1.0
141
4.0
290
     0
  0
SCALE
  5
4B
102
{ACAD_REACTORS
330
47
102
}
330
47
100
AcDbScale
 70
     0
300
1:5
140
1.0
141
5.0
290
     0
  0
SCALE
  5
4C
102
{ACAD_REACTORS
330
47
102
}
330
47
100
AcDbScale
 70
     0
300
1:8
140
1.0
141
8.0
290
     0
  0
SCALE
  5
4D
102
{ACAD_REACTORS
330
47
102
}
330
47
100
AcDbScale
 70
     0
300
1:10
140
1.0
141
10.0
290
     0
  0
SCALE
  5
4E
102
{ACAD_REACTORS
330
47
102
}
330
47
100
AcDbScale
 70
     0
300
1:16
140
1.0
141
16.0
290
     0
  0
SCALE
  5
4F
102
{ACAD_REACTORS
330
47
102
}
330
47
100
AcDbScale
 70
     0
300
1:20
140
1.0
141
20.0
290
     0
  0
SCALE
  5
50
102
{ACAD_REACTORS
330
47
102
}
330
47
100
AcDbScale
 70
     0
300
1:30
140
1.0
141
30.0
290
     0
  0
SCALE
  5
51
102
{ACAD_REACTORS
330
47
102
}
330
47
100
AcDbScale
 70
     0
300
1:40
140
1.0
141
40.0
290
     0
  0
SCALE
  5
52
102
{ACAD_REACTORS
330
47
102
}
330
47
100
AcDbScale
 70
     0
300
1:50
140
1.0
141
50.0
290
     0
  0
SCALE
  5
53
102
{ACAD_REACTORS
330
47
102
}
330
47
100
AcDbScale
 70
     0
300
1:100
140
1.0
141
100.0
290
     0
  0
SCALE
  5
54
102
{ACAD_REACTORS
330
47
102
}
330
47
100
AcDbScale
 70
     0
300
2:1
140
2.0
141
1.0
290
     0
  0
SCALE
  5
55
102
{ACAD_REACTORS
330
47
102
}
330
47
100
AcDbScale
 70
     0
300
4:1
140
4.0
141
1.0
290
     0
  0
SCALE
  5
56
102
{ACAD_REACTORS
330
47
102
}
330
47
100
AcDbScale
 70
     0
300
8:1
140
8.0
141
1.0
290
     0
  0
SCALE
  5
57
102
{ACAD_REACTORS
330
47
102
}
330
47
100
AcDbScale
 70
     0
300
10:1
140
10.0
141
1.0
290
     0
  0
SCALE
  5
58
102
{ACAD_REACTORS
330
47
102
}
330
47
100
AcDbScale
 70
     0
300
100:1
140
100.0
141
1.0
290
     0
  0
SCALE
  5
59
102
{ACAD_REACTORS
330
47
102
}
330
47
100
AcDbScale
 70
     0
300
1/128" = 1'-0"
140
0.0078125
141
12.0
290
     0
  0
SCALE
  5
5A
102
{ACAD_REACTORS
330
47
102
}
330
47
100
AcDbScale
 70
     0
300
1/64" = 1'-0"
140
0.015625
141
12.0
290
     0
  0
SCALE
  5
5B
102
{ACAD_REACTORS
330
47
102
}
330
47
100
AcDbScale
 70
     0
300
1/32" = 1'-0"
140
0.03125
141
12.0
290
     0
  0
SCALE
  5
5C
102
{ACAD_REACTORS
330
47
102
}
330
47
100
AcDbScale
 70
     0
300
1/16" = 1'-0"
140
0.0625
141
12.0
290
     0
  0
SCALE
  5
5D
102
{ACAD_REACTORS
330
47
102
}
330
47
100
AcDbScale
 70
     0
300
3/32" = 1'-0"
140
0.09375
141
12.0
290
     0
  0
SCALE
  5
5E
102
{ACAD_REACTORS
330
47
102
}
330
47
100
AcDbScale
 70
     0
300
1/8" = 1'-0"
140
0.125
141
12.0
290
     0
  0
SCALE
  5
5F
102
{ACAD_REACTORS
330
47
102
}
330
47
100
AcDbScale
 70
     0
300
3/16" = 1'-0"
140
0.1875
141
12.0
290
     0
  0
SCALE
  5
60
102
{ACAD_REACTORS
330
47
102
}
330
47
100
AcDbScale
 70
     0
300
1/4" = 1'-0"
140
0.25
141
12.0
290
     0
  0
SCALE
  5
61
102
{ACAD_REACTORS
330
47
102
}
330
47
100
AcDbScale
 70
     0
300
3/8" = 1'-0"
140
0.375
141
12.0
290
     0
  0
SCALE
  5
62
102
{ACAD_REACTORS
330
47
102
}
330
47
100
AcDbScale
 70
     0
300
1/2" = 1'-0"
140
0.5
141
12.0
290
     0
  0
SCALE
  5
63
102
{ACAD_REACTORS
330
47
102
}
330
47
100
AcDbScale
 70
     0
300
3/4" = 1'-0"
140
0.75
141
12.0
290
     0
  0
SCALE
  5
64
102
{ACAD_REACTORS
330
47
102
}
330
47
100
AcDbScale
 70
     0
300
1" = 1'-0"
140
1.0
141
12.0
290
     0
  0
SCALE
  5
65
102
{ACAD_REACTORS
330
47
102
}
330
47
100
AcDbScale
 70
     0
300
1-1/2" = 1'-0"
140
1.5
141
12.0
290
     0
  0
SCALE
  5
66
102
{ACAD_REACTORS
330
47
102
}
330
47
100
AcDbScale
 70
     0
300
3" = 1'-0"
140
3.0
141
12.0
290
     0
  0
SCALE
  5
67
102
{ACAD_REACTORS
330
47
102
}
330
47
100
AcDbScale
 70
     0
300
6" = 1'-0"
140
6.0
141
12.0
290
     0
  0
SCALE
  5
68
102
{ACAD_REACTORS
330
47
102
}
330
47
100
AcDbScale
 70
     0
300
1'-0" = 1'-0"
140
12.0
141
12.0
290
     0
  0
ENDSEC
  0
EOF
