  0
SECTION
  2
HEADER
  9
$ACADVER
  1
AC1015
  9
$ACADMAINTVER
 70
     6
  9
$DWGCODEPAGE
  3
ANSI_1252
  9
$INSBASE
 10
0.0
 20
0.0
 30
0.0
  9
$EXTMIN
 10
0.0
 20
0.0
 30
0.0
  9
$EXTMAX
 10
44.0
 20
34.0
 30
0.0
  9
$LIMMIN
 10
0.0
 20
0.0
  9
$LIMMAX
 10
44.0
 20
34.0
  9
$ORTHOMODE
 70
     0
  9
$REGENMODE
 70
     1
  9
$FILLMODE
 70
     1
  9
$QTEXTMODE
 70
     0
  9
$MIRRTEXT
 70
     1
  9
$LTSCALE
 40
1.0
  9
$ATTMODE
 70
     1
  9
$TEXTSIZE
 40
0.1377952756
  9
$TRACEWID
 40
0.05
  9
$TEXTSTYLE
  7
Standard
  9
$CLAYER
  8
0
  9
$CELTYPE
  6
ByLayer
  9
$CECOLOR
 62
   256
  9
$CELTSCALE
 40
1.0
  9
$DISPSILH
 70
     0
  9
$DIMSCALE
 40
1.0
  9
$DIMASZ
 40
0.13
  9
$DIMEXO
 40
0.05
  9
$DIMDLI
 40
0.38
  9
$DIMRND
 40
0.0
  9
$DIMDLE
 40
0.0
  9
$DIMEXE
 40
0.125
  9
$DIMTP
 40
0.0
  9
$DIMTM
 40
0.0
  9
$DIMTXT
 40
0.1377952756
  9
$DIMCEN
 40
0.09
  9
$DIMTSZ
 40
0.0
  9
$DIMTOL
 70
     0
  9
$DIMLIM
 70
     0
  9
$DIMTIH
 70
     1
  9
$DIMTOH
 70
     1
  9
$DIMSE1
 70
     0
  9
$DIMSE2
 70
     0
  9
$DIMTAD
 70
     1
  9
$DIMZIN
 70
     1
  9
$DIMBLK
  1

  9
$DIMASO
 70
     1
  9
$DIMSHO
 70
     1
  9
$DIMPOST
  1

  9
$DIMAPOST
  1

  9
$DIMALT
 70
     0
  9
$DIMALTD
 70
     2
  9
$DIMALTF
 40
25.4
  9
$DIMLFAC
 40
1.0
  9
$DIMTOFL
 70
     0
  9
$DIMTVP
 40
0.0
  9
$DIMTIX
 70
     0
  9
$DIMSOXD
 70
     0
  9
$DIMSAH
 70
     0
  9
$DIMBLK1
  1

  9
$DIMBLK2
  1

  9
$DIMSTYLE
  2
Standard
  9
$DIMCLRD
 70
     0
  9
$DIMCLRE
 70
     0
  9
$DIMCLRT
 70
     0
  9
$DIMTFAC
 40
1.0
  9
$DIMGAP
 40
0.06
  9
$DIMJUST
 70
     0
  9
$DIMSD1
 70
     0
  9
$DIMSD2
 70
     0
  9
$DIMTOLJ
 70
     1
  9
$DIMTZIN
 70
     1
  9
$DIMALTZ
 70
     0
  9
$DIMALTTZ
 70
     0
  9
$DIMUPT
 70
     0
  9
$DIMDEC
 70
     4
  9
$DIMTDEC
 70
     4
  9
$DIMALTU
 70
     2
  9
$DIMALTTD
 70
     2
  9
$DIMTXSTY
  7
Standard
  9
$DIMAUNIT
 70
     0
  9
$DIMADEC
 70
     0
  9
$DIMALTRND
 40
0.0
  9
$DIMAZIN
 70
     0
  9
$DIMDSEP
 70
    46
  9
$DIMATFIT
 70
     3
  9
$DIMFRAC
 70
     0
  9
$DIMLDRBLK
  1

  9
$DIMLUNIT
 70
     2
  9
$DIMLWD
 70
    -2
  9
$DIMLWE
 70
    -2
  9
$DIMTMOVE
 70
     0
  9
$LUNITS
 70
     2
  9
$LUPREC
 70
     4
  9
$SKETCHINC
 40
0.1
  9
$FILLETRAD
 40
0.5
  9
$AUNITS
 70
     0
  9
$AUPREC
 70
     0
  9
$MENU
  1
.
  9
$ELEVATION
 40
0.0
  9
$PELEVATION
 40
0.0
  9
$THICKNESS
 40
0.0
  9
$LIMCHECK
 70
     0
  9
$CHAMFERA
 40
0.0
  9
$CHAMFERB
 40
0.0
  9
$CHAMFERC
 40
0.0
  9
$CHAMFERD
 40
0.0
  9
$SKPOLY
 70
     0
  9
$TDCREATE
 40
2459538.645781018
  9
$TDUCREATE
 40
2459538.854114352
  9
$TDUPDATE
 40
2459538.645783576
  9
$TDUUPDATE
 40
2459538.85411691
  9
$TDINDWG
 40
0.0000000116
  9
$TDUSRTIMER
 40
0.0000000116
  9
$USRTIMER
 70
     1
  9
$ANGBASE
 50
0.0
  9
$ANGDIR
 70
     0
  9
$PDMODE
 70
     0
  9
$PDSIZE
 40
-1.0
  9
$PLINEWID
 40
0.0
  9
$SPLFRAME
 70
     0
  9
$SPLINETYPE
 70
     6
  9
$SPLINESEGS
 70
     8
  9
$HANDSEED
  5
1ED
  9
$SURFTAB1
 70
     6
  9
$SURFTAB2
 70
     6
  9
$SURFTYPE
 70
     6
  9
$SURFU
 70
     6
  9
$SURFV
 70
     6
  9
$UCSBASE
  2

  9
$UCSNAME
  2

  9
$UCSORG
 10
0.0
 20
0.0
 30
0.0
  9
$UCSXDIR
 10
1.0
 20
0.0
 30
0.0
  9
$UCSYDIR
 10
0.0
 20
1.0
 30
0.0
  9
$UCSORTHOREF
  2

  9
$UCSORTHOVIEW
 70
     0
  9
$UCSORGTOP
 10
0.0
 20
0.0
 30
0.0
  9
$UCSORGBOTTOM
 10
0.0
 20
0.0
 30
0.0
  9
$UCSORGLEFT
 10
0.0
 20
0.0
 30
0.0
  9
$UCSORGRIGHT
 10
0.0
 20
0.0
 30
0.0
  9
$UCSORGFRONT
 10
0.0
 20
0.0
 30
0.0
  9
$UCSORGBACK
 10
0.0
 20
0.0
 30
0.0
  9
$PUCSBASE
  2

  9
$PUCSNAME
  2

  9
$PUCSORG
 10
0.0
 20
0.0
 30
0.0
  9
$PUCSXDIR
 10
1.0
 20
0.0
 30
0.0
  9
$PUCSYDIR
 10
0.0
 20
1.0
 30
0.0
  9
$PUCSORTHOREF
  2

  9
$PUCSORTHOVIEW
 70
     0
  9
$PUCSORGTOP
 10
0.0
 20
0.0
 30
0.0
  9
$PUCSORGBOTTOM
 10
0.0
 20
0.0
 30
0.0
  9
$PUCSORGLEFT
 10
0.0
 20
0.0
 30
0.0
  9
$PUCSORGRIGHT
 10
0.0
 20
0.0
 30
0.0
  9
$PUCSORGFRONT
 10
0.0
 20
0.0
 30
0.0
  9
$PUCSORGBACK
 10
0.0
 20
0.0
 30
0.0
  9
$USERI1
 70
     0
  9
$USERI2
 70
     0
  9
$USERI3
 70
     0
  9
$USERI4
 70
     0
  9
$USERI5
 70
     0
  9
$USERR1
 40
0.0
  9
$USERR2
 40
0.0
  9
$USERR3
 40
0.0
  9
$USERR4
 40
0.0
  9
$USERR5
 40
0.0
  9
$WORLDVIEW
 70
     1
  9
$SHADEDGE
 70
     3
  9
$SHADEDIF
 70
    70
  9
$TILEMODE
 70
     1
  9
$MAXACTVP
 70
    64
  9
$PINSBASE
 10
0.0
 20
0.0
 30
0.0
  9
$PLIMCHECK
 70
     0
  9
$PEXTMIN
 10
0.0
 20
0.0
 30
0.0
  9
$PEXTMAX
 10
44.0
 20
34.0
 30
0.0
  9
$PLIMMIN
 10
0.0
 20
0.0
  9
$PLIMMAX
 10
44.0
 20
34.0
  9
$UNITMODE
 70
     0
  9
$VISRETAIN
 70
     1
  9
$PLINEGEN
 70
     0
  9
$PSLTSCALE
 70
     1
  9
$TREEDEPTH
 70
  3020
  9
$CMLSTYLE
  2
Standard
  9
$CMLJUST
 70
     0
  9
$CMLSCALE
 40
1.0
  9
$PROXYGRAPHICS
 70
     1
  9
$MEASUREMENT
 70
     0
  9
$CELWEIGHT
370
    -1
  9
$ENDCAPS
280
     0
  9
$JOINSTYLE
280
     0
  9
$LWDISPLAY
290
     1
  9
$INSUNITS
 70
     1
  9
$HYPERLINKBASE
  1

  9
$STYLESHEET
  1

  9
$XEDIT
290
     1
  9
$CEPSNTYPE
380
     0
  9
$PSTYLEMODE
290
     1
  9
$FINGERPRINTGUID
  2
{658f24a2-81d0-46cd-94c6-c4369e0b55c2}
  9
$VERSIONGUID
  2
{FAEB1C32-E019-11D5-929B-00C0DF256EC4}
  9
$EXTNAMES
290
     1
  9
$PSVPSCALE
 40
0.0
  9
$OLESTARTUP
290
     0
  0
ENDSEC
  0
SECTION
  2
CLASSES
  0
CLASS
  1
ACDBDICTIONARYWDFLT
  2
AcDbDictionaryWithDefault
  3
ObjectDBX Classes
 90
        0
280
     0
281
     0
  0
CLASS
  1
VISUALSTYLE
  2
AcDbVisualStyle
  3
ObjectDBX Classes
 90
     4095
280
     0
281
     0
  0
CLASS
  1
MATERIAL
  2
AcDbMaterial
  3
ObjectDBX Classes
 90
     1153
280
     0
281
     0
  0
CLASS
  1
SCALE
  2
AcDbScale
  3
ObjectDBX Classes
 90
     1153
280
     0
281
     0
  0
CLASS
  1
TABLESTYLE
  2
AcDbTableStyle
  3
ObjectDBX Classes
 90
     4095
280
     0
281
     0
  0
CLASS
  1
MLEADERSTYLE
  2
AcDbMLeaderStyle
  3
ACDB_MLEADERSTYLE_CLASS
 90
     4095
280
     0
281
     0
  0
CLASS
  1
SUN
  2
AcDbSun
  3
SCENEOE
 90
     1153
280
     0
281
     0
  0
CLASS
  1
ACDBPLACEHOLDER
  2
AcDbPlaceHolder
  3
ObjectDBX Classes
 90
        0
280
     0
281
     0
  0
CLASS
  1
LAYOUT
  2
AcDbLayout
  3
ObjectDBX Classes
 90
        0
280
     0
281
     0
  0
ENDSEC
  0
SECTION
  2
TABLES
  0
TABLE
  2
VPORT
  5
8
330
0
100
AcDbSymbolTable
 70
     1
  0
VPORT
  5
29
330
8
100
AcDbSymbolTableRecord
100
AcDbViewportTableRecord
  2
*Active
 70
     0
 10
0.0
 20
0.0
 11
1.0
 21
1.0
 12
22.0
 22
17.0
 13
0.0
 23
0.0
 14
0.5
 24
0.5
 15
0.5
 25
0.5
 16
0.0
 26
0.0
 36
1.0
 17
0.0
 27
0.0
 37
0.0
 40
34.0
 41
1.2941176471
 42
50.0
 43
0.0
 44
0.0
 50
0.0
 51
0.0
 71
     0
 72
  2000
 73
     1
 74
     3
 75
     0
 76
     0
 77
     0
 78
     0
281
     0
 65
     1
110
0.0
120
0.0
130
0.0
111
1.0
121
0.0
131
0.0
112
0.0
122
1.0
132
0.0
 79
     0
146
0.0
  0
ENDTAB
  0
TABLE
  2
LTYPE
  5
5
330
0
100
AcDbSymbolTable
 70
     6
  0
LTYPE
  5
14
330
5
100
AcDbSymbolTableRecord
100
AcDbLinetypeTableRecord
  2
ByBlock
 70
     0
  3

 72
    65
 73
     0
 40
0.0
  0
LTYPE
  5
15
330
5
100
AcDbSymbolTableRecord
100
AcDbLinetypeTableRecord
  2
ByLayer
 70
     0
  3

 72
    65
 73
     0
 40
0.0
  0
LTYPE
  5
16
330
5
100
AcDbSymbolTableRecord
100
AcDbLinetypeTableRecord
  2
Continuous
 70
     0
  3
Solid line
 72
    65
 73
     0
 40
0.0
  0
LTYPE
  5
6E
330
5
100
AcDbSymbolTableRecord
100
AcDbLinetypeTableRecord
  2
HIDDEN
 70
     0
  3
Hidden __ __ __ __ __ __ __ __ __ __ __ __ __ __
 72
    65
 73
     2
 40
0.075
 49
0.05
 74
     0
 49
-0.025
 74
     0
  0
LTYPE
  5
6F
330
5
100
AcDbSymbolTableRecord
100
AcDbLinetypeTableRecord
  2
PHANTOM
 70
     0
  3
Phantom ______  __  __  ______  __  __  ______
 72
    65
 73
     6
 40
0.5
 49
0.25
 74
     0
 49
-0.05
 74
     0
 49
0.05
 74
     0
 49
-0.05
 74
     0
 49
0.05
 74
     0
 49
-0.05
 74
     0
  0
LTYPE
  5
70
330
5
100
AcDbSymbolTableRecord
100
AcDbLinetypeTableRecord
  2
CENTER
 70
     0
  3
Center ____ _ ____ _ ____ _ ____ _ ____ _ ____
 72
    65
 73
     4
 40
0.4
 49
0.25
 74
     0
 49
-0.05
 74
     0
 49
0.05
 74
     0
 49
-0.05
 74
     0
  0
LTYPE
  5
71
330
5
100
AcDbSymbolTableRecord
100
AcDbLinetypeTableRecord
  2
CENTERX2
 70
     0
  3
Center (2x) ________  __  ________  __  _____
 72
    65
 73
     4
 40
0.8
 49
0.5
 74
     0
 49
-0.1
 74
     0
 49
0.1
 74
     0
 49
-0.1
 74
     0
  0
LTYPE
  5
72
330
5
100
AcDbSymbolTableRecord
100
AcDbLinetypeTableRecord
  2
DOT2
 70
     0
  3
Dot (.5x) ........................................
 72
    65
 73
     2
 40
0.025
 49
0.0
 74
     0
 49
-0.025
 74
     0
  0
ENDTAB
  0
TABLE
  2
LAYER
  5
2
330
0
100
AcDbSymbolTable
 70
     3
  0
LAYER
  5
10
330
2
100
AcDbSymbolTableRecord
100
AcDbLayerTableRecord
  2
0
 70
     0
 62
     7
  6
Continuous
370
    -3
390
F
  0
LAYER
  5
73
330
2
100
AcDbSymbolTableRecord
100
AcDbLayerTableRecord
  2
SLD-0_0
 70
     0
 62
   179
  6
Continuous
370
    -3
390
F
  0
LAYER
  5
74
330
2
100
AcDbSymbolTableRecord
100
AcDbLayerTableRecord
  2
SLD-0
 70
     0
 62
   179
  6
Continuous
370
    -3
390
F
  0
ENDTAB
  0
TABLE
  2
STYLE
  5
3
330
0
100
AcDbSymbolTable
 70
     2
  0
STYLE
  5
11
330
3
100
AcDbSymbolTableRecord
100
AcDbTextStyleTableRecord
  2
Standard
 70
     0
 40
0.0
 41
1.0
 50
0.0
 71
     0
 42
0.1377952756
  3
txt
  4

  0
STYLE
  5
1E5
330
3
100
AcDbSymbolTableRecord
100
AcDbTextStyleTableRecord
  2
SLDTEXTSTYLE0
 70
     0
 40
0.0
 41
0.7
 50
0.0
 71
     0
 42
0.1377952756
  3
TXT
  4

  0
ENDTAB
  0
TABLE
  2
VIEW
  5
6
330
0
100
AcDbSymbolTable
 70
     0
  0
ENDTAB
  0
TABLE
  2
UCS
  5
7
330
0
100
AcDbSymbolTable
 70
     0
  0
ENDTAB
  0
TABLE
  2
APPID
  5
9
330
0
100
AcDbSymbolTable
 70
     1
  0
APPID
  5
12
330
9
100
AcDbSymbolTableRecord
100
AcDbRegAppTableRecord
  2
ACAD
 70
     0
  0
ENDTAB
  0
TABLE
  2
DIMSTYLE
  5
A
330
0
100
AcDbSymbolTable
 70
     1
100
AcDbDimStyleTable
  0
DIMSTYLE
105
27
330
A
100
AcDbSymbolTableRecord
100
AcDbDimStyleTableRecord
  2
Standard
 70
     0
178
     0
340
11
  0
ENDTAB
  0
TABLE
  2
BLOCK_RECORD
  5
1
330
0
100
AcDbSymbolTable
 70
     0
  0
BLOCK_RECORD
  5
1F
330
1
100
AcDbSymbolTableRecord
100
AcDbBlockTableRecord
  2
*Model_Space
340
22
  0
BLOCK_RECORD
  5
1B
330
1
100
AcDbSymbolTableRecord
100
AcDbBlockTableRecord
  2
*Paper_Space
340
1E
  0
ENDTAB
  0
ENDSEC
  0
SECTION
  2
BLOCKS
  0
BLOCK
  5
20
330
1F
100
AcDbEntity
  8
0
100
AcDbBlockBegin
  2
*Model_Space
 70
     0
 10
0.0
 20
0.0
 30
0.0
  3
*Model_Space
  1

  0
ENDBLK
  5
21
330
1F
100
AcDbEntity
  8
0
100
AcDbBlockEnd
  0
BLOCK
  5
1C
330
1B
100
AcDbEntity
 67
     1
  8
0
100
AcDbBlockBegin
  2
*Paper_Space
 70
     0
 10
0.0
 20
0.0
 30
0.0
  3
*Paper_Space
  1

  0
ENDBLK
  5
1D
330
1B
100
AcDbEntity
 67
     1
  8
0
100
AcDbBlockEnd
  0
ENDSEC
  0
SECTION
  2
ENTITIES
  0
LINE
  5
75
330
1F
100
AcDbEntity
  8
SLD-0
 62
   179
100
AcDbLine
 10
289.858
 20
18.1171
 30
0.0
 11
303.859
 21
18.1171
 31
0.0
  0
LINE
  5
76
330
1F
100
AcDbEntity
  8
SLD-0
 62
   179
100
AcDbLine
 10
303.859
 20
18.1171
 30
0.0
 11
303.859
 21
4.11621
 31
0.0
  0
LINE
  5
77
330
1F
100
AcDbEntity
  8
SLD-0
 62
   179
100
AcDbLine
 10
303.859
 20
4.11621
 30
0.0
 11
289.858
 21
4.11621
 31
0.0
  0
LINE
  5
78
330
1F
100
AcDbEntity
  8
SLD-0
 62
   179
100
AcDbLine
 10
289.858
 20
4.11621
 30
0.0
 11
289.858
 21
18.1171
 31
0.0
  0
LINE
  5
79
330
1F
100
AcDbEntity
  8
SLD-0
 62
   179
100
AcDbLine
 10
270.808
 20
18.1171
 30
0.0
 11
284.809
 21
18.1171
 31
0.0
  0
LINE
  5
7A
330
1F
100
AcDbEntity
  8
SLD-0
 62
   179
100
AcDbLine
 10
284.809
 20
18.1171
 30
0.0
 11
284.809
 21
4.11621
 31
0.0
  0
LINE
  5
7B
330
1F
100
AcDbEntity
  8
SLD-0
 62
   179
100
AcDbLine
 10
284.809
 20
4.11621
 30
0.0
 11
270.808
 21
4.11621
 31
0.0
  0
LINE
  5
7C
330
1F
100
AcDbEntity
  8
SLD-0
 62
   179
100
AcDbLine
 10
270.808
 20
4.11621
 30
0.0
 11
270.808
 21
18.1171
 31
0.0
  0
LINE
  5
7D
330
1F
100
AcDbEntity
  8
SLD-0
 62
   179
100
AcDbLine
 10
251.758
 20
18.1171
 30
0.0
 11
265.759
 21
18.1171
 31
0.0
  0
LINE
  5
7E
330
1F
100
AcDbEntity
  8
SLD-0
 62
   179
100
AcDbLine
 10
265.759
 20
18.1171
 30
0.0
 11
265.759
 21
4.11621
 31
0.0
  0
LINE
  5
7F
330
1F
100
AcDbEntity
  8
SLD-0
 62
   179
100
AcDbLine
 10
265.759
 20
4.11621
 30
0.0
 11
251.758
 21
4.11621
 31
0.0
  0
LINE
  5
80
330
1F
100
AcDbEntity
  8
SLD-0
 62
   179
100
AcDbLine
 10
251.758
 20
4.11621
 30
0.0
 11
251.758
 21
18.1171
 31
0.0
  0
LINE
  5
81
330
1F
100
AcDbEntity
  8
SLD-0
 62
   179
100
AcDbLine
 10
232.708
 20
18.1171
 30
0.0
 11
246.709
 21
18.1171
 31
0.0
  0
LINE
  5
82
330
1F
100
AcDbEntity
  8
SLD-0
 62
   179
100
AcDbLine
 10
246.709
 20
18.1171
 30
0.0
 11
246.709
 21
4.11621
 31
0.0
  0
LINE
  5
83
330
1F
100
AcDbEntity
  8
SLD-0
 62
   179
100
AcDbLine
 10
246.709
 20
4.11621
 30
0.0
 11
232.708
 21
4.11621
 31
0.0
  0
LINE
  5
84
330
1F
100
AcDbEntity
  8
SLD-0
 62
   179
100
AcDbLine
 10
232.708
 20
4.11621
 30
0.0
 11
232.708
 21
18.1171
 31
0.0
  0
LINE
  5
85
330
1F
100
AcDbEntity
  8
SLD-0
 62
   179
100
AcDbLine
 10
213.658
 20
18.1171
 30
0.0
 11
227.659
 21
18.1171
 31
0.0
  0
LINE
  5
86
330
1F
100
AcDbEntity
  8
SLD-0
 62
   179
100
AcDbLine
 10
227.659
 20
18.1171
 30
0.0
 11
227.659
 21
4.11621
 31
0.0
  0
LINE
  5
87
330
1F
100
AcDbEntity
  8
SLD-0
 62
   179
100
AcDbLine
 10
227.659
 20
4.11621
 30
0.0
 11
213.658
 21
4.11621
 31
0.0
  0
LINE
  5
88
330
1F
100
AcDbEntity
  8
SLD-0
 62
   179
100
AcDbLine
 10
213.658
 20
4.11621
 30
0.0
 11
213.658
 21
18.1171
 31
0.0
  0
LINE
  5
89
330
1F
100
AcDbEntity
  8
SLD-0
 62
   179
100
AcDbLine
 10
194.608
 20
18.1171
 30
0.0
 11
208.609
 21
18.1171
 31
0.0
  0
LINE
  5
8A
330
1F
100
AcDbEntity
  8
SLD-0
 62
   179
100
AcDbLine
 10
208.609
 20
18.1171
 30
0.0
 11
208.609
 21
4.11621
 31
0.0
  0
LINE
  5
8B
330
1F
100
AcDbEntity
  8
SLD-0
 62
   179
100
AcDbLine
 10
208.609
 20
4.11621
 30
0.0
 11
194.608
 21
4.11621
 31
0.0
  0
LINE
  5
8C
330
1F
100
AcDbEntity
  8
SLD-0
 62
   179
100
AcDbLine
 10
194.608
 20
4.11621
 30
0.0
 11
194.608
 21
18.1171
 31
0.0
  0
LINE
  5
8D
330
1F
100
AcDbEntity
  8
SLD-0
 62
   179
100
AcDbLine
 10
54.1143
 20
18.1171
 30
0.0
 11
68.115
 21
18.1171
 31
0.0
  0
LINE
  5
8E
330
1F
100
AcDbEntity
  8
SLD-0
 62
   179
100
AcDbLine
 10
68.115
 20
18.1171
 30
0.0
 11
68.115
 21
4.11621
 31
0.0
  0
LINE
  5
8F
330
1F
100
AcDbEntity
  8
SLD-0
 62
   179
100
AcDbLine
 10
68.115
 20
4.11621
 30
0.0
 11
54.1143
 21
4.11621
 31
0.0
  0
LINE
  5
90
330
1F
100
AcDbEntity
  8
SLD-0
 62
   179
100
AcDbLine
 10
54.1143
 20
4.11621
 30
0.0
 11
54.1143
 21
18.1171
 31
0.0
  0
LINE
  5
91
330
1F
100
AcDbEntity
  8
SLD-0
 62
   179
100
AcDbLine
 10
30.3017
 20
18.1171
 30
0.0
 11
44.3011
 21
18.1171
 31
0.0
  0
LINE
  5
92
330
1F
100
AcDbEntity
  8
SLD-0
 62
   179
100
AcDbLine
 10
44.3011
 20
18.1171
 30
0.0
 11
44.3011
 21
4.11621
 31
0.0
  0
LINE
  5
93
330
1F
100
AcDbEntity
  8
SLD-0
 62
   179
100
AcDbLine
 10
44.3011
 20
4.11621
 30
0.0
 11
30.3017
 21
4.11621
 31
0.0
  0
LINE
  5
94
330
1F
100
AcDbEntity
  8
SLD-0
 62
   179
100
AcDbLine
 10
30.3017
 20
4.11621
 30
0.0
 11
30.3017
 21
18.1171
 31
0.0
  0
LINE
  5
95
330
1F
100
AcDbEntity
  8
SLD-0
 62
   179
100
AcDbLine
 10
6.48917
 20
18.1171
 30
0.0
 11
20.49
 21
18.1171
 31
0.0
  0
LINE
  5
96
330
1F
100
AcDbEntity
  8
SLD-0
 62
   179
100
AcDbLine
 10
20.49
 20
18.1171
 30
0.0
 11
20.49
 21
4.11621
 31
0.0
  0
LINE
  5
97
330
1F
100
AcDbEntity
  8
SLD-0
 62
   179
100
AcDbLine
 10
20.49
 20
4.11621
 30
0.0
 11
6.48917
 21
4.11621
 31
0.0
  0
LINE
  5
98
330
1F
100
AcDbEntity
  8
SLD-0
 62
   179
100
AcDbLine
 10
6.48917
 20
4.11621
 30
0.0
 11
6.48917
 21
18.1171
 31
0.0
  0
LINE
  5
99
330
1F
100
AcDbEntity
  8
SLD-0
 62
   179
100
AcDbLine
 10
289.858
 20
37.1669
 30
0.0
 11
303.859
 21
37.1669
 31
0.0
  0
LINE
  5
9A
330
1F
100
AcDbEntity
  8
SLD-0
 62
   179
100
AcDbLine
 10
303.859
 20
37.1669
 30
0.0
 11
303.859
 21
23.1662
 31
0.0
  0
LINE
  5
9B
330
1F
100
AcDbEntity
  8
SLD-0
 62
   179
100
AcDbLine
 10
303.859
 20
23.1662
 30
0.0
 11
289.858
 21
23.1662
 31
0.0
  0
LINE
  5
9C
330
1F
100
AcDbEntity
  8
SLD-0
 62
   179
100
AcDbLine
 10
289.858
 20
23.1662
 30
0.0
 11
289.858
 21
37.1669
 31
0.0
  0
LINE
  5
9D
330
1F
100
AcDbEntity
  8
SLD-0
 62
   179
100
AcDbLine
 10
270.808
 20
37.1669
 30
0.0
 11
284.809
 21
37.1669
 31
0.0
  0
LINE
  5
9E
330
1F
100
AcDbEntity
  8
SLD-0
 62
   179
100
AcDbLine
 10
284.809
 20
37.1669
 30
0.0
 11
284.809
 21
23.1662
 31
0.0
  0
LINE
  5
9F
330
1F
100
AcDbEntity
  8
SLD-0
 62
   179
100
AcDbLine
 10
284.809
 20
23.1662
 30
0.0
 11
270.808
 21
23.1662
 31
0.0
  0
LINE
  5
A0
330
1F
100
AcDbEntity
  8
SLD-0
 62
   179
100
AcDbLine
 10
270.808
 20
23.1662
 30
0.0
 11
270.808
 21
37.1669
 31
0.0
  0
LINE
  5
A1
330
1F
100
AcDbEntity
  8
SLD-0
 62
   179
100
AcDbLine
 10
244.614
 20
37.1669
 30
0.0
 11
258.615
 21
37.1669
 31
0.0
  0
LINE
  5
A2
330
1F
100
AcDbEntity
  8
SLD-0
 62
   179
100
AcDbLine
 10
258.615
 20
37.1669
 30
0.0
 11
258.615
 21
23.1662
 31
0.0
  0
LINE
  5
A3
330
1F
100
AcDbEntity
  8
SLD-0
 62
   179
100
AcDbLine
 10
258.615
 20
23.1662
 30
0.0
 11
244.614
 21
23.1662
 31
0.0
  0
LINE
  5
A4
330
1F
100
AcDbEntity
  8
SLD-0
 62
   179
100
AcDbLine
 10
244.614
 20
23.1662
 30
0.0
 11
244.614
 21
37.1669
 31
0.0
  0
LINE
  5
A5
330
1F
100
AcDbEntity
  8
SLD-0
 62
   179
100
AcDbLine
 10
218.421
 20
37.1669
 30
0.0
 11
232.42
 21
37.1669
 31
0.0
  0
LINE
  5
A6
330
1F
100
AcDbEntity
  8
SLD-0
 62
   179
100
AcDbLine
 10
232.42
 20
37.1669
 30
0.0
 11
232.42
 21
23.1662
 31
0.0
  0
LINE
  5
A7
330
1F
100
AcDbEntity
  8
SLD-0
 62
   179
100
AcDbLine
 10
232.42
 20
23.1662
 30
0.0
 11
218.421
 21
23.1662
 31
0.0
  0
LINE
  5
A8
330
1F
100
AcDbEntity
  8
SLD-0
 62
   179
100
AcDbLine
 10
218.421
 20
23.1662
 30
0.0
 11
218.421
 21
37.1669
 31
0.0
  0
LINE
  5
A9
330
1F
100
AcDbEntity
  8
SLD-0
 62
   179
100
AcDbLine
 10
199.371
 20
37.1669
 30
0.0
 11
213.37
 21
37.1669
 31
0.0
  0
LINE
  5
AA
330
1F
100
AcDbEntity
  8
SLD-0
 62
   179
100
AcDbLine
 10
213.37
 20
37.1669
 30
0.0
 11
213.37
 21
23.1662
 31
0.0
  0
LINE
  5
AB
330
1F
100
AcDbEntity
  8
SLD-0
 62
   179
100
AcDbLine
 10
213.37
 20
23.1662
 30
0.0
 11
199.371
 21
23.1662
 31
0.0
  0
LINE
  5
AC
330
1F
100
AcDbEntity
  8
SLD-0
 62
   179
100
AcDbLine
 10
199.371
 20
23.1662
 30
0.0
 11
199.371
 21
37.1669
 31
0.0
  0
LINE
  5
AD
330
1F
100
AcDbEntity
  8
SLD-0
 62
   179
100
AcDbLine
 10
180.321
 20
37.1669
 30
0.0
 11
194.32
 21
37.1669
 31
0.0
  0
LINE
  5
AE
330
1F
100
AcDbEntity
  8
SLD-0
 62
   179
100
AcDbLine
 10
194.32
 20
37.1669
 30
0.0
 11
194.32
 21
23.1662
 31
0.0
  0
LINE
  5
AF
330
1F
100
AcDbEntity
  8
SLD-0
 62
   179
100
AcDbLine
 10
194.32
 20
23.1662
 30
0.0
 11
180.321
 21
23.1662
 31
0.0
  0
LINE
  5
B0
330
1F
100
AcDbEntity
  8
SLD-0
 62
   179
100
AcDbLine
 10
180.321
 20
23.1662
 30
0.0
 11
180.321
 21
37.1669
 31
0.0
  0
LINE
  5
B1
330
1F
100
AcDbEntity
  8
SLD-0
 62
   179
100
AcDbLine
 10
161.271
 20
37.1669
 30
0.0
 11
175.27
 21
37.1669
 31
0.0
  0
LINE
  5
B2
330
1F
100
AcDbEntity
  8
SLD-0
 62
   179
100
AcDbLine
 10
175.27
 20
37.1669
 30
0.0
 11
175.27
 21
23.1662
 31
0.0
  0
LINE
  5
B3
330
1F
100
AcDbEntity
  8
SLD-0
 62
   179
100
AcDbLine
 10
175.27
 20
23.1662
 30
0.0
 11
161.271
 21
23.1662
 31
0.0
  0
LINE
  5
B4
330
1F
100
AcDbEntity
  8
SLD-0
 62
   179
100
AcDbLine
 10
161.271
 20
23.1662
 30
0.0
 11
161.271
 21
37.1669
 31
0.0
  0
LINE
  5
B5
330
1F
100
AcDbEntity
  8
SLD-0
 62
   179
100
AcDbLine
 10
142.221
 20
37.1669
 30
0.0
 11
156.22
 21
37.1669
 31
0.0
  0
LINE
  5
B6
330
1F
100
AcDbEntity
  8
SLD-0
 62
   179
100
AcDbLine
 10
156.22
 20
37.1669
 30
0.0
 11
156.22
 21
23.1662
 31
0.0
  0
LINE
  5
B7
330
1F
100
AcDbEntity
  8
SLD-0
 62
   179
100
AcDbLine
 10
156.22
 20
23.1662
 30
0.0
 11
142.221
 21
23.1662
 31
0.0
  0
LINE
  5
B8
330
1F
100
AcDbEntity
  8
SLD-0
 62
   179
100
AcDbLine
 10
142.221
 20
23.1662
 30
0.0
 11
142.221
 21
37.1669
 31
0.0
  0
LINE
  5
B9
330
1F
100
AcDbEntity
  8
SLD-0
 62
   179
100
AcDbLine
 10
123.169
 20
37.1669
 30
0.0
 11
137.17
 21
37.1669
 31
0.0
  0
LINE
  5
BA
330
1F
100
AcDbEntity
  8
SLD-0
 62
   179
100
AcDbLine
 10
137.17
 20
37.1669
 30
0.0
 11
137.17
 21
23.1662
 31
0.0
  0
LINE
  5
BB
330
1F
100
AcDbEntity
  8
SLD-0
 62
   179
100
AcDbLine
 10
137.17
 20
23.1662
 30
0.0
 11
123.169
 21
23.1662
 31
0.0
  0
LINE
  5
BC
330
1F
100
AcDbEntity
  8
SLD-0
 62
   179
100
AcDbLine
 10
123.169
 20
23.1662
 30
0.0
 11
123.169
 21
37.1669
 31
0.0
  0
LINE
  5
BD
330
1F
100
AcDbEntity
  8
SLD-0
 62
   179
100
AcDbLine
 10
104.121
 20
37.1669
 30
0.0
 11
118.12
 21
37.1669
 31
0.0
  0
LINE
  5
BE
330
1F
100
AcDbEntity
  8
SLD-0
 62
   179
100
AcDbLine
 10
118.12
 20
37.1669
 30
0.0
 11
118.12
 21
23.1662
 31
0.0
  0
LINE
  5
BF
330
1F
100
AcDbEntity
  8
SLD-0
 62
   179
100
AcDbLine
 10
118.12
 20
23.1662
 30
0.0
 11
104.121
 21
23.1662
 31
0.0
  0
LINE
  5
C0
330
1F
100
AcDbEntity
  8
SLD-0
 62
   179
100
AcDbLine
 10
104.121
 20
23.1662
 30
0.0
 11
104.121
 21
37.1669
 31
0.0
  0
LINE
  5
C1
330
1F
100
AcDbEntity
  8
SLD-0
 62
   179
100
AcDbLine
 10
85.0706
 20
37.1669
 30
0.0
 11
99.0699
 21
37.1669
 31
0.0
  0
LINE
  5
C2
330
1F
100
AcDbEntity
  8
SLD-0
 62
   179
100
AcDbLine
 10
99.0699
 20
37.1669
 30
0.0
 11
99.0699
 21
23.1662
 31
0.0
  0
LINE
  5
C3
330
1F
100
AcDbEntity
  8
SLD-0
 62
   179
100
AcDbLine
 10
99.0699
 20
23.1662
 30
0.0
 11
85.0706
 21
23.1662
 31
0.0
  0
LINE
  5
C4
330
1F
100
AcDbEntity
  8
SLD-0
 62
   179
100
AcDbLine
 10
85.0706
 20
23.1662
 30
0.0
 11
85.0706
 21
37.1669
 31
0.0
  0
LINE
  5
C5
330
1F
100
AcDbEntity
  8
SLD-0
 62
   179
100
AcDbLine
 10
66.0206
 20
37.1669
 30
0.0
 11
80.0199
 21
37.1669
 31
0.0
  0
LINE
  5
C6
330
1F
100
AcDbEntity
  8
SLD-0
 62
   179
100
AcDbLine
 10
80.0199
 20
37.1669
 30
0.0
 11
80.0199
 21
23.1662
 31
0.0
  0
LINE
  5
C7
330
1F
100
AcDbEntity
  8
SLD-0
 62
   179
100
AcDbLine
 10
80.0199
 20
23.1662
 30
0.0
 11
66.0206
 21
23.1662
 31
0.0
  0
LINE
  5
C8
330
1F
100
AcDbEntity
  8
SLD-0
 62
   179
100
AcDbLine
 10
66.0206
 20
23.1662
 30
0.0
 11
66.0206
 21
37.1669
 31
0.0
  0
LINE
  5
C9
330
1F
100
AcDbEntity
  8
SLD-0
 62
   179
100
AcDbLine
 10
46.9706
 20
37.1669
 30
0.0
 11
60.9699
 21
37.1669
 31
0.0
  0
LINE
  5
CA
330
1F
100
AcDbEntity
  8
SLD-0
 62
   179
100
AcDbLine
 10
60.9699
 20
37.1669
 30
0.0
 11
60.9699
 21
23.1662
 31
0.0
  0
LINE
  5
CB
330
1F
100
AcDbEntity
  8
SLD-0
 62
   179
100
AcDbLine
 10
60.9699
 20
23.1662
 30
0.0
 11
46.9706
 21
23.1662
 31
0.0
  0
LINE
  5
CC
330
1F
100
AcDbEntity
  8
SLD-0
 62
   179
100
AcDbLine
 10
46.9706
 20
23.1662
 30
0.0
 11
46.9706
 21
37.1669
 31
0.0
  0
LINE
  5
CD
330
1F
100
AcDbEntity
  8
SLD-0
 62
   179
100
AcDbLine
 10
289.858
 20
56.2169
 30
0.0
 11
303.859
 21
56.2169
 31
0.0
  0
LINE
  5
CE
330
1F
100
AcDbEntity
  8
SLD-0
 62
   179
100
AcDbLine
 10
303.859
 20
56.2169
 30
0.0
 11
303.859
 21
42.2162
 31
0.0
  0
LINE
  5
CF
330
1F
100
AcDbEntity
  8
SLD-0
 62
   179
100
AcDbLine
 10
303.859
 20
42.2162
 30
0.0
 11
289.858
 21
42.2162
 31
0.0
  0
LINE
  5
D0
330
1F
100
AcDbEntity
  8
SLD-0
 62
   179
100
AcDbLine
 10
289.858
 20
42.2162
 30
0.0
 11
289.858
 21
56.2169
 31
0.0
  0
LINE
  5
D1
330
1F
100
AcDbEntity
  8
SLD-0
 62
   179
100
AcDbLine
 10
227.946
 20
56.2169
 30
0.0
 11
241.945
 21
56.2169
 31
0.0
  0
LINE
  5
D2
330
1F
100
AcDbEntity
  8
SLD-0
 62
   179
100
AcDbLine
 10
241.945
 20
56.2169
 30
0.0
 11
241.945
 21
42.2162
 31
0.0
  0
LINE
  5
D3
330
1F
100
AcDbEntity
  8
SLD-0
 62
   179
100
AcDbLine
 10
241.945
 20
42.2162
 30
0.0
 11
227.946
 21
42.2162
 31
0.0
  0
LINE
  5
D4
330
1F
100
AcDbEntity
  8
SLD-0
 62
   179
100
AcDbLine
 10
227.946
 20
42.2162
 30
0.0
 11
227.946
 21
56.2169
 31
0.0
  0
LINE
  5
D5
330
1F
100
AcDbEntity
  8
SLD-0
 62
   179
100
AcDbLine
 10
208.896
 20
56.2169
 30
0.0
 11
222.895
 21
56.2169
 31
0.0
  0
LINE
  5
D6
330
1F
100
AcDbEntity
  8
SLD-0
 62
   179
100
AcDbLine
 10
222.895
 20
56.2169
 30
0.0
 11
222.895
 21
42.2162
 31
0.0
  0
LINE
  5
D7
330
1F
100
AcDbEntity
  8
SLD-0
 62
   179
100
AcDbLine
 10
222.895
 20
42.2162
 30
0.0
 11
208.896
 21
42.2162
 31
0.0
  0
LINE
  5
D8
330
1F
100
AcDbEntity
  8
SLD-0
 62
   179
100
AcDbLine
 10
208.896
 20
42.2162
 30
0.0
 11
208.896
 21
56.2169
 31
0.0
  0
LINE
  5
D9
330
1F
100
AcDbEntity
  8
SLD-0
 62
   179
100
AcDbLine
 10
189.846
 20
56.2169
 30
0.0
 11
203.845
 21
56.2169
 31
0.0
  0
LINE
  5
DA
330
1F
100
AcDbEntity
  8
SLD-0
 62
   179
100
AcDbLine
 10
203.845
 20
56.2169
 30
0.0
 11
203.845
 21
42.2162
 31
0.0
  0
LINE
  5
DB
330
1F
100
AcDbEntity
  8
SLD-0
 62
   179
100
AcDbLine
 10
203.845
 20
42.2162
 30
0.0
 11
189.846
 21
42.2162
 31
0.0
  0
LINE
  5
DC
330
1F
100
AcDbEntity
  8
SLD-0
 62
   179
100
AcDbLine
 10
189.846
 20
42.2162
 30
0.0
 11
189.846
 21
56.2169
 31
0.0
  0
LINE
  5
DD
330
1F
100
AcDbEntity
  8
SLD-0
 62
   179
100
AcDbLine
 10
170.796
 20
56.2169
 30
0.0
 11
184.795
 21
56.2169
 31
0.0
  0
LINE
  5
DE
330
1F
100
AcDbEntity
  8
SLD-0
 62
   179
100
AcDbLine
 10
184.795
 20
56.2169
 30
0.0
 11
184.795
 21
42.2162
 31
0.0
  0
LINE
  5
DF
330
1F
100
AcDbEntity
  8
SLD-0
 62
   179
100
AcDbLine
 10
184.795
 20
42.2162
 30
0.0
 11
170.796
 21
42.2162
 31
0.0
  0
LINE
  5
E0
330
1F
100
AcDbEntity
  8
SLD-0
 62
   179
100
AcDbLine
 10
170.796
 20
42.2162
 30
0.0
 11
170.796
 21
56.2169
 31
0.0
  0
LINE
  5
E1
330
1F
100
AcDbEntity
  8
SLD-0
 62
   179
100
AcDbLine
 10
151.746
 20
56.2169
 30
0.0
 11
165.745
 21
56.2169
 31
0.0
  0
LINE
  5
E2
330
1F
100
AcDbEntity
  8
SLD-0
 62
   179
100
AcDbLine
 10
165.745
 20
56.2169
 30
0.0
 11
165.745
 21
42.2162
 31
0.0
  0
LINE
  5
E3
330
1F
100
AcDbEntity
  8
SLD-0
 62
   179
100
AcDbLine
 10
165.745
 20
42.2162
 30
0.0
 11
151.746
 21
42.2162
 31
0.0
  0
LINE
  5
E4
330
1F
100
AcDbEntity
  8
SLD-0
 62
   179
100
AcDbLine
 10
151.746
 20
42.2162
 30
0.0
 11
151.746
 21
56.2169
 31
0.0
  0
LINE
  5
E5
330
1F
100
AcDbEntity
  8
SLD-0
 62
   179
100
AcDbLine
 10
132.696
 20
56.2169
 30
0.0
 11
146.695
 21
56.2169
 31
0.0
  0
LINE
  5
E6
330
1F
100
AcDbEntity
  8
SLD-0
 62
   179
100
AcDbLine
 10
146.695
 20
56.2169
 30
0.0
 11
146.695
 21
42.2162
 31
0.0
  0
LINE
  5
E7
330
1F
100
AcDbEntity
  8
SLD-0
 62
   179
100
AcDbLine
 10
146.695
 20
42.2162
 30
0.0
 11
132.696
 21
42.2162
 31
0.0
  0
LINE
  5
E8
330
1F
100
AcDbEntity
  8
SLD-0
 62
   179
100
AcDbLine
 10
132.696
 20
42.2162
 30
0.0
 11
132.696
 21
56.2169
 31
0.0
  0
LINE
  5
E9
330
1F
100
AcDbEntity
  8
SLD-0
 62
   179
100
AcDbLine
 10
113.646
 20
56.2169
 30
0.0
 11
127.645
 21
56.2169
 31
0.0
  0
LINE
  5
EA
330
1F
100
AcDbEntity
  8
SLD-0
 62
   179
100
AcDbLine
 10
127.645
 20
56.2169
 30
0.0
 11
127.645
 21
42.2162
 31
0.0
  0
LINE
  5
EB
330
1F
100
AcDbEntity
  8
SLD-0
 62
   179
100
AcDbLine
 10
127.645
 20
42.2162
 30
0.0
 11
113.646
 21
42.2162
 31
0.0
  0
LINE
  5
EC
330
1F
100
AcDbEntity
  8
SLD-0
 62
   179
100
AcDbLine
 10
113.646
 20
42.2162
 30
0.0
 11
113.646
 21
56.2169
 31
0.0
  0
LINE
  5
ED
330
1F
100
AcDbEntity
  8
SLD-0
 62
   179
100
AcDbLine
 10
94.5956
 20
56.2169
 30
0.0
 11
108.595
 21
56.2169
 31
0.0
  0
LINE
  5
EE
330
1F
100
AcDbEntity
  8
SLD-0
 62
   179
100
AcDbLine
 10
108.595
 20
56.2169
 30
0.0
 11
108.595
 21
42.2162
 31
0.0
  0
LINE
  5
EF
330
1F
100
AcDbEntity
  8
SLD-0
 62
   179
100
AcDbLine
 10
108.595
 20
42.2162
 30
0.0
 11
94.5956
 21
42.2162
 31
0.0
  0
LINE
  5
F0
330
1F
100
AcDbEntity
  8
SLD-0
 62
   179
100
AcDbLine
 10
94.5956
 20
42.2162
 30
0.0
 11
94.5956
 21
56.2169
 31
0.0
  0
LINE
  5
F1
330
1F
100
AcDbEntity
  8
SLD-0
 62
   179
100
AcDbLine
 10
75.5456
 20
56.2169
 30
0.0
 11
89.5449
 21
56.2169
 31
0.0
  0
LINE
  5
F2
330
1F
100
AcDbEntity
  8
SLD-0
 62
   179
100
AcDbLine
 10
89.5449
 20
56.2169
 30
0.0
 11
89.5449
 21
42.2162
 31
0.0
  0
LINE
  5
F3
330
1F
100
AcDbEntity
  8
SLD-0
 62
   179
100
AcDbLine
 10
89.5449
 20
42.2162
 30
0.0
 11
75.5456
 21
42.2162
 31
0.0
  0
LINE
  5
F4
330
1F
100
AcDbEntity
  8
SLD-0
 62
   179
100
AcDbLine
 10
75.5456
 20
42.2162
 30
0.0
 11
75.5456
 21
56.2169
 31
0.0
  0
LINE
  5
F5
330
1F
100
AcDbEntity
  8
SLD-0
 62
   179
100
AcDbLine
 10
56.4956
 20
56.2169
 30
0.0
 11
70.4949
 21
56.2169
 31
0.0
  0
LINE
  5
F6
330
1F
100
AcDbEntity
  8
SLD-0
 62
   179
100
AcDbLine
 10
70.4949
 20
56.2169
 30
0.0
 11
70.4949
 21
42.2162
 31
0.0
  0
LINE
  5
F7
330
1F
100
AcDbEntity
  8
SLD-0
 62
   179
100
AcDbLine
 10
70.4949
 20
42.2162
 30
0.0
 11
56.4956
 21
42.2162
 31
0.0
  0
LINE
  5
F8
330
1F
100
AcDbEntity
  8
SLD-0
 62
   179
100
AcDbLine
 10
56.4956
 20
42.2162
 30
0.0
 11
56.4956
 21
56.2169
 31
0.0
  0
LINE
  5
F9
330
1F
100
AcDbEntity
  8
SLD-0
 62
   179
100
AcDbLine
 10
37.4456
 20
56.2169
 30
0.0
 11
51.4449
 21
56.2169
 31
0.0
  0
LINE
  5
FA
330
1F
100
AcDbEntity
  8
SLD-0
 62
   179
100
AcDbLine
 10
51.4449
 20
56.2169
 30
0.0
 11
51.4449
 21
42.2162
 31
0.0
  0
LINE
  5
FB
330
1F
100
AcDbEntity
  8
SLD-0
 62
   179
100
AcDbLine
 10
51.4449
 20
42.2162
 30
0.0
 11
37.4456
 21
42.2162
 31
0.0
  0
LINE
  5
FC
330
1F
100
AcDbEntity
  8
SLD-0
 62
   179
100
AcDbLine
 10
37.4456
 20
42.2162
 30
0.0
 11
37.4456
 21
56.2169
 31
0.0
  0
LINE
  5
FD
330
1F
100
AcDbEntity
  8
SLD-0
 62
   179
100
AcDbLine
 10
11.2503
 20
56.2169
 30
0.0
 11
25.2512
 21
56.2169
 31
0.0
  0
LINE
  5
FE
330
1F
100
AcDbEntity
  8
SLD-0
 62
   179
100
AcDbLine
 10
25.2512
 20
56.2169
 30
0.0
 11
25.2512
 21
42.2162
 31
0.0
  0
LINE
  5
FF
330
1F
100
AcDbEntity
  8
SLD-0
 62
   179
100
AcDbLine
 10
25.2512
 20
42.2162
 30
0.0
 11
11.2503
 21
42.2162
 31
0.0
  0
LINE
  5
100
330
1F
100
AcDbEntity
  8
SLD-0
 62
   179
100
AcDbLine
 10
11.2503
 20
42.2162
 30
0.0
 11
11.2503
 21
56.2169
 31
0.0
  0
LINE
  5
101
330
1F
100
AcDbEntity
  8
SLD-0
 62
   179
100
AcDbLine
 10
289.858
 20
75.2669
 30
0.0
 11
303.859
 21
75.2669
 31
0.0
  0
LINE
  5
102
330
1F
100
AcDbEntity
  8
SLD-0
 62
   179
100
AcDbLine
 10
303.859
 20
75.2669
 30
0.0
 11
303.859
 21
61.2662
 31
0.0
  0
LINE
  5
103
330
1F
100
AcDbEntity
  8
SLD-0
 62
   179
100
AcDbLine
 10
303.859
 20
61.2662
 30
0.0
 11
289.858
 21
61.2662
 31
0.0
  0
LINE
  5
104
330
1F
100
AcDbEntity
  8
SLD-0
 62
   179
100
AcDbLine
 10
289.858
 20
61.2662
 30
0.0
 11
289.858
 21
75.2669
 31
0.0
  0
LINE
  5
105
330
1F
100
AcDbEntity
  8
SLD-0
 62
   179
100
AcDbLine
 10
266.046
 20
75.2669
 30
0.0
 11
280.045
 21
75.2669
 31
0.0
  0
LINE
  5
106
330
1F
100
AcDbEntity
  8
SLD-0
 62
   179
100
AcDbLine
 10
280.045
 20
75.2669
 30
0.0
 11
280.045
 21
61.2662
 31
0.0
  0
LINE
  5
107
330
1F
100
AcDbEntity
  8
SLD-0
 62
   179
100
AcDbLine
 10
280.045
 20
61.2662
 30
0.0
 11
266.046
 21
61.2662
 31
0.0
  0
LINE
  5
108
330
1F
100
AcDbEntity
  8
SLD-0
 62
   179
100
AcDbLine
 10
266.046
 20
61.2662
 30
0.0
 11
266.046
 21
75.2669
 31
0.0
  0
LINE
  5
109
330
1F
100
AcDbEntity
  8
SLD-0
 62
   179
100
AcDbLine
 10
242.233
 20
75.2669
 30
0.0
 11
256.232
 21
75.2669
 31
0.0
  0
LINE
  5
10A
330
1F
100
AcDbEntity
  8
SLD-0
 62
   179
100
AcDbLine
 10
256.232
 20
75.2669
 30
0.0
 11
256.232
 21
61.2662
 31
0.0
  0
LINE
  5
10B
330
1F
100
AcDbEntity
  8
SLD-0
 62
   179
100
AcDbLine
 10
256.232
 20
61.2662
 30
0.0
 11
242.233
 21
61.2662
 31
0.0
  0
LINE
  5
10C
330
1F
100
AcDbEntity
  8
SLD-0
 62
   179
100
AcDbLine
 10
242.233
 20
61.2662
 30
0.0
 11
242.233
 21
75.2669
 31
0.0
  0
LINE
  5
10D
330
1F
100
AcDbEntity
  8
SLD-0
 62
   179
100
AcDbLine
 10
223.183
 20
75.2669
 30
0.0
 11
237.184
 21
75.2669
 31
0.0
  0
LINE
  5
10E
330
1F
100
AcDbEntity
  8
SLD-0
 62
   179
100
AcDbLine
 10
237.184
 20
75.2669
 30
0.0
 11
237.184
 21
61.2662
 31
0.0
  0
LINE
  5
10F
330
1F
100
AcDbEntity
  8
SLD-0
 62
   179
100
AcDbLine
 10
237.184
 20
61.2662
 30
0.0
 11
223.183
 21
61.2662
 31
0.0
  0
LINE
  5
110
330
1F
100
AcDbEntity
  8
SLD-0
 62
   179
100
AcDbLine
 10
223.183
 20
61.2662
 30
0.0
 11
223.183
 21
75.2669
 31
0.0
  0
LINE
  5
111
330
1F
100
AcDbEntity
  8
SLD-0
 62
   179
100
AcDbLine
 10
204.133
 20
75.2669
 30
0.0
 11
218.134
 21
75.2669
 31
0.0
  0
LINE
  5
112
330
1F
100
AcDbEntity
  8
SLD-0
 62
   179
100
AcDbLine
 10
218.134
 20
75.2669
 30
0.0
 11
218.134
 21
61.2662
 31
0.0
  0
LINE
  5
113
330
1F
100
AcDbEntity
  8
SLD-0
 62
   179
100
AcDbLine
 10
218.134
 20
61.2662
 30
0.0
 11
204.133
 21
61.2662
 31
0.0
  0
LINE
  5
114
330
1F
100
AcDbEntity
  8
SLD-0
 62
   179
100
AcDbLine
 10
204.133
 20
61.2662
 30
0.0
 11
204.133
 21
75.2669
 31
0.0
  0
LINE
  5
115
330
1F
100
AcDbEntity
  8
SLD-0
 62
   179
100
AcDbLine
 10
185.083
 20
75.2669
 30
0.0
 11
199.084
 21
75.2669
 31
0.0
  0
LINE
  5
116
330
1F
100
AcDbEntity
  8
SLD-0
 62
   179
100
AcDbLine
 10
199.084
 20
75.2669
 30
0.0
 11
199.084
 21
61.2662
 31
0.0
  0
LINE
  5
117
330
1F
100
AcDbEntity
  8
SLD-0
 62
   179
100
AcDbLine
 10
199.084
 20
61.2662
 30
0.0
 11
185.083
 21
61.2662
 31
0.0
  0
LINE
  5
118
330
1F
100
AcDbEntity
  8
SLD-0
 62
   179
100
AcDbLine
 10
185.083
 20
61.2662
 30
0.0
 11
185.083
 21
75.2669
 31
0.0
  0
LINE
  5
119
330
1F
100
AcDbEntity
  8
SLD-0
 62
   179
100
AcDbLine
 10
166.033
 20
75.2669
 30
0.0
 11
180.034
 21
75.2669
 31
0.0
  0
LINE
  5
11A
330
1F
100
AcDbEntity
  8
SLD-0
 62
   179
100
AcDbLine
 10
180.034
 20
75.2669
 30
0.0
 11
180.034
 21
61.2662
 31
0.0
  0
LINE
  5
11B
330
1F
100
AcDbEntity
  8
SLD-0
 62
   179
100
AcDbLine
 10
180.034
 20
61.2662
 30
0.0
 11
166.033
 21
61.2662
 31
0.0
  0
LINE
  5
11C
330
1F
100
AcDbEntity
  8
SLD-0
 62
   179
100
AcDbLine
 10
166.033
 20
61.2662
 30
0.0
 11
166.033
 21
75.2669
 31
0.0
  0
LINE
  5
11D
330
1F
100
AcDbEntity
  8
SLD-0
 62
   179
100
AcDbLine
 10
146.983
 20
75.2669
 30
0.0
 11
160.984
 21
75.2669
 31
0.0
  0
LINE
  5
11E
330
1F
100
AcDbEntity
  8
SLD-0
 62
   179
100
AcDbLine
 10
160.984
 20
75.2669
 30
0.0
 11
160.984
 21
61.2662
 31
0.0
  0
LINE
  5
11F
330
1F
100
AcDbEntity
  8
SLD-0
 62
   179
100
AcDbLine
 10
160.984
 20
61.2662
 30
0.0
 11
146.983
 21
61.2662
 31
0.0
  0
LINE
  5
120
330
1F
100
AcDbEntity
  8
SLD-0
 62
   179
100
AcDbLine
 10
146.983
 20
61.2662
 30
0.0
 11
146.983
 21
75.2669
 31
0.0
  0
LINE
  5
121
330
1F
100
AcDbEntity
  8
SLD-0
 62
   179
100
AcDbLine
 10
127.933
 20
75.2669
 30
0.0
 11
141.934
 21
75.2669
 31
0.0
  0
LINE
  5
122
330
1F
100
AcDbEntity
  8
SLD-0
 62
   179
100
AcDbLine
 10
141.934
 20
75.2669
 30
0.0
 11
141.934
 21
61.2662
 31
0.0
  0
LINE
  5
123
330
1F
100
AcDbEntity
  8
SLD-0
 62
   179
100
AcDbLine
 10
141.934
 20
61.2662
 30
0.0
 11
127.933
 21
61.2662
 31
0.0
  0
LINE
  5
124
330
1F
100
AcDbEntity
  8
SLD-0
 62
   179
100
AcDbLine
 10
127.933
 20
61.2662
 30
0.0
 11
127.933
 21
75.2669
 31
0.0
  0
LINE
  5
125
330
1F
100
AcDbEntity
  8
SLD-0
 62
   179
100
AcDbLine
 10
108.883
 20
75.2669
 30
0.0
 11
122.884
 21
75.2669
 31
0.0
  0
LINE
  5
126
330
1F
100
AcDbEntity
  8
SLD-0
 62
   179
100
AcDbLine
 10
122.884
 20
75.2669
 30
0.0
 11
122.884
 21
61.2662
 31
0.0
  0
LINE
  5
127
330
1F
100
AcDbEntity
  8
SLD-0
 62
   179
100
AcDbLine
 10
122.884
 20
61.2662
 30
0.0
 11
108.883
 21
61.2662
 31
0.0
  0
LINE
  5
128
330
1F
100
AcDbEntity
  8
SLD-0
 62
   179
100
AcDbLine
 10
108.883
 20
61.2662
 30
0.0
 11
108.883
 21
75.2669
 31
0.0
  0
LINE
  5
129
330
1F
100
AcDbEntity
  8
SLD-0
 62
   179
100
AcDbLine
 10
89.8331
 20
75.2669
 30
0.0
 11
103.834
 21
75.2669
 31
0.0
  0
LINE
  5
12A
330
1F
100
AcDbEntity
  8
SLD-0
 62
   179
100
AcDbLine
 10
103.834
 20
75.2669
 30
0.0
 11
103.834
 21
61.2662
 31
0.0
  0
LINE
  5
12B
330
1F
100
AcDbEntity
  8
SLD-0
 62
   179
100
AcDbLine
 10
103.834
 20
61.2662
 30
0.0
 11
89.8331
 21
61.2662
 31
0.0
  0
LINE
  5
12C
330
1F
100
AcDbEntity
  8
SLD-0
 62
   179
100
AcDbLine
 10
89.8331
 20
61.2662
 30
0.0
 11
89.8331
 21
75.2669
 31
0.0
  0
LINE
  5
12D
330
1F
100
AcDbEntity
  8
SLD-0
 62
   179
100
AcDbLine
 10
70.7831
 20
75.2669
 30
0.0
 11
84.7838
 21
75.2669
 31
0.0
  0
LINE
  5
12E
330
1F
100
AcDbEntity
  8
SLD-0
 62
   179
100
AcDbLine
 10
84.7838
 20
75.2669
 30
0.0
 11
84.7838
 21
61.2662
 31
0.0
  0
LINE
  5
12F
330
1F
100
AcDbEntity
  8
SLD-0
 62
   179
100
AcDbLine
 10
84.7838
 20
61.2662
 30
0.0
 11
70.7831
 21
61.2662
 31
0.0
  0
LINE
  5
130
330
1F
100
AcDbEntity
  8
SLD-0
 62
   179
100
AcDbLine
 10
70.7831
 20
61.2662
 30
0.0
 11
70.7831
 21
75.2669
 31
0.0
  0
LINE
  5
131
330
1F
100
AcDbEntity
  8
SLD-0
 62
   179
100
AcDbLine
 10
51.7331
 20
75.2669
 30
0.0
 11
65.7338
 21
75.2669
 31
0.0
  0
LINE
  5
132
330
1F
100
AcDbEntity
  8
SLD-0
 62
   179
100
AcDbLine
 10
65.7338
 20
75.2669
 30
0.0
 11
65.7338
 21
61.2662
 31
0.0
  0
LINE
  5
133
330
1F
100
AcDbEntity
  8
SLD-0
 62
   179
100
AcDbLine
 10
65.7338
 20
61.2662
 30
0.0
 11
51.7331
 21
61.2662
 31
0.0
  0
LINE
  5
134
330
1F
100
AcDbEntity
  8
SLD-0
 62
   179
100
AcDbLine
 10
51.7331
 20
61.2662
 30
0.0
 11
51.7331
 21
75.2669
 31
0.0
  0
LINE
  5
135
330
1F
100
AcDbEntity
  8
SLD-0
 62
   179
100
AcDbLine
 10
32.6829
 20
75.2669
 30
0.0
 11
46.6838
 21
75.2669
 31
0.0
  0
LINE
  5
136
330
1F
100
AcDbEntity
  8
SLD-0
 62
   179
100
AcDbLine
 10
46.6838
 20
75.2669
 30
0.0
 11
46.6838
 21
61.2662
 31
0.0
  0
LINE
  5
137
330
1F
100
AcDbEntity
  8
SLD-0
 62
   179
100
AcDbLine
 10
46.6838
 20
61.2662
 30
0.0
 11
32.6829
 21
61.2662
 31
0.0
  0
LINE
  5
138
330
1F
100
AcDbEntity
  8
SLD-0
 62
   179
100
AcDbLine
 10
32.6829
 20
61.2662
 30
0.0
 11
32.6829
 21
75.2669
 31
0.0
  0
LINE
  5
139
330
1F
100
AcDbEntity
  8
SLD-0
 62
   179
100
AcDbLine
 10
8.87042
 20
75.2669
 30
0.0
 11
22.8699
 21
75.2669
 31
0.0
  0
LINE
  5
13A
330
1F
100
AcDbEntity
  8
SLD-0
 62
   179
100
AcDbLine
 10
22.8699
 20
75.2669
 30
0.0
 11
22.8699
 21
61.2662
 31
0.0
  0
LINE
  5
13B
330
1F
100
AcDbEntity
  8
SLD-0
 62
   179
100
AcDbLine
 10
22.8699
 20
61.2662
 30
0.0
 11
8.87042
 21
61.2662
 31
0.0
  0
LINE
  5
13C
330
1F
100
AcDbEntity
  8
SLD-0
 62
   179
100
AcDbLine
 10
8.87042
 20
61.2662
 30
0.0
 11
8.87042
 21
75.2669
 31
0.0
  0
LINE
  5
13D
330
1F
100
AcDbEntity
  8
SLD-0
 62
   179
100
AcDbLine
 10
289.858
 20
94.3169
 30
0.0
 11
303.859
 21
94.3169
 31
0.0
  0
LINE
  5
13E
330
1F
100
AcDbEntity
  8
SLD-0
 62
   179
100
AcDbLine
 10
303.859
 20
94.3169
 30
0.0
 11
303.859
 21
80.3176
 31
0.0
  0
LINE
  5
13F
330
1F
100
AcDbEntity
  8
SLD-0
 62
   179
100
AcDbLine
 10
303.859
 20
80.3176
 30
0.0
 11
289.858
 21
80.3176
 31
0.0
  0
LINE
  5
140
330
1F
100
AcDbEntity
  8
SLD-0
 62
   179
100
AcDbLine
 10
289.858
 20
80.3176
 30
0.0
 11
289.858
 21
94.3169
 31
0.0
  0
LINE
  5
141
330
1F
100
AcDbEntity
  8
SLD-0
 62
   179
100
AcDbLine
 10
232.708
 20
94.3169
 30
0.0
 11
246.709
 21
94.3169
 31
0.0
  0
LINE
  5
142
330
1F
100
AcDbEntity
  8
SLD-0
 62
   179
100
AcDbLine
 10
246.709
 20
94.3169
 30
0.0
 11
246.709
 21
80.3176
 31
0.0
  0
LINE
  5
143
330
1F
100
AcDbEntity
  8
SLD-0
 62
   179
100
AcDbLine
 10
246.709
 20
80.3176
 30
0.0
 11
232.708
 21
80.3176
 31
0.0
  0
LINE
  5
144
330
1F
100
AcDbEntity
  8
SLD-0
 62
   179
100
AcDbLine
 10
232.708
 20
80.3176
 30
0.0
 11
232.708
 21
94.3169
 31
0.0
  0
LINE
  5
145
330
1F
100
AcDbEntity
  8
SLD-0
 62
   179
100
AcDbLine
 10
213.658
 20
94.3169
 30
0.0
 11
227.659
 21
94.3169
 31
0.0
  0
LINE
  5
146
330
1F
100
AcDbEntity
  8
SLD-0
 62
   179
100
AcDbLine
 10
227.659
 20
94.3169
 30
0.0
 11
227.659
 21
80.3176
 31
0.0
  0
LINE
  5
147
330
1F
100
AcDbEntity
  8
SLD-0
 62
   179
100
AcDbLine
 10
227.659
 20
80.3176
 30
0.0
 11
213.658
 21
80.3176
 31
0.0
  0
LINE
  5
148
330
1F
100
AcDbEntity
  8
SLD-0
 62
   179
100
AcDbLine
 10
213.658
 20
80.3176
 30
0.0
 11
213.658
 21
94.3169
 31
0.0
  0
LINE
  5
149
330
1F
100
AcDbEntity
  8
SLD-0
 62
   179
100
AcDbLine
 10
194.608
 20
94.3169
 30
0.0
 11
208.609
 21
94.3169
 31
0.0
  0
LINE
  5
14A
330
1F
100
AcDbEntity
  8
SLD-0
 62
   179
100
AcDbLine
 10
208.609
 20
94.3169
 30
0.0
 11
208.609
 21
80.3176
 31
0.0
  0
LINE
  5
14B
330
1F
100
AcDbEntity
  8
SLD-0
 62
   179
100
AcDbLine
 10
208.609
 20
80.3176
 30
0.0
 11
194.608
 21
80.3176
 31
0.0
  0
LINE
  5
14C
330
1F
100
AcDbEntity
  8
SLD-0
 62
   179
100
AcDbLine
 10
194.608
 20
80.3176
 30
0.0
 11
194.608
 21
94.3169
 31
0.0
  0
LINE
  5
14D
330
1F
100
AcDbEntity
  8
SLD-0
 62
   179
100
AcDbLine
 10
175.558
 20
94.3169
 30
0.0
 11
189.559
 21
94.3169
 31
0.0
  0
LINE
  5
14E
330
1F
100
AcDbEntity
  8
SLD-0
 62
   179
100
AcDbLine
 10
189.559
 20
94.3169
 30
0.0
 11
189.559
 21
80.3176
 31
0.0
  0
LINE
  5
14F
330
1F
100
AcDbEntity
  8
SLD-0
 62
   179
100
AcDbLine
 10
189.559
 20
80.3176
 30
0.0
 11
175.558
 21
80.3176
 31
0.0
  0
LINE
  5
150
330
1F
100
AcDbEntity
  8
SLD-0
 62
   179
100
AcDbLine
 10
175.558
 20
80.3176
 30
0.0
 11
175.558
 21
94.3169
 31
0.0
  0
LINE
  5
151
330
1F
100
AcDbEntity
  8
SLD-0
 62
   179
100
AcDbLine
 10
156.508
 20
94.3169
 30
0.0
 11
170.509
 21
94.3169
 31
0.0
  0
LINE
  5
152
330
1F
100
AcDbEntity
  8
SLD-0
 62
   179
100
AcDbLine
 10
170.509
 20
94.3169
 30
0.0
 11
170.509
 21
80.3176
 31
0.0
  0
LINE
  5
153
330
1F
100
AcDbEntity
  8
SLD-0
 62
   179
100
AcDbLine
 10
170.509
 20
80.3176
 30
0.0
 11
156.508
 21
80.3176
 31
0.0
  0
LINE
  5
154
330
1F
100
AcDbEntity
  8
SLD-0
 62
   179
100
AcDbLine
 10
156.508
 20
80.3176
 30
0.0
 11
156.508
 21
94.3169
 31
0.0
  0
LINE
  5
155
330
1F
100
AcDbEntity
  8
SLD-0
 62
   179
100
AcDbLine
 10
137.458
 20
94.3169
 30
0.0
 11
151.459
 21
94.3169
 31
0.0
  0
LINE
  5
156
330
1F
100
AcDbEntity
  8
SLD-0
 62
   179
100
AcDbLine
 10
151.459
 20
94.3169
 30
0.0
 11
151.459
 21
80.3176
 31
0.0
  0
LINE
  5
157
330
1F
100
AcDbEntity
  8
SLD-0
 62
   179
100
AcDbLine
 10
151.459
 20
80.3176
 30
0.0
 11
137.458
 21
80.3176
 31
0.0
  0
LINE
  5
158
330
1F
100
AcDbEntity
  8
SLD-0
 62
   179
100
AcDbLine
 10
137.458
 20
80.3176
 30
0.0
 11
137.458
 21
94.3169
 31
0.0
  0
LINE
  5
159
330
1F
100
AcDbEntity
  8
SLD-0
 62
   179
100
AcDbLine
 10
118.408
 20
94.3169
 30
0.0
 11
132.409
 21
94.3169
 31
0.0
  0
LINE
  5
15A
330
1F
100
AcDbEntity
  8
SLD-0
 62
   179
100
AcDbLine
 10
132.409
 20
94.3169
 30
0.0
 11
132.409
 21
80.3176
 31
0.0
  0
LINE
  5
15B
330
1F
100
AcDbEntity
  8
SLD-0
 62
   179
100
AcDbLine
 10
132.409
 20
80.3176
 30
0.0
 11
118.408
 21
80.3176
 31
0.0
  0
LINE
  5
15C
330
1F
100
AcDbEntity
  8
SLD-0
 62
   179
100
AcDbLine
 10
118.408
 20
80.3176
 30
0.0
 11
118.408
 21
94.3169
 31
0.0
  0
LINE
  5
15D
330
1F
100
AcDbEntity
  8
SLD-0
 62
   179
100
AcDbLine
 10
99.3581
 20
94.3169
 30
0.0
 11
113.357
 21
94.3169
 31
0.0
  0
LINE
  5
15E
330
1F
100
AcDbEntity
  8
SLD-0
 62
   179
100
AcDbLine
 10
113.357
 20
94.3169
 30
0.0
 11
113.357
 21
80.3176
 31
0.0
  0
LINE
  5
15F
330
1F
100
AcDbEntity
  8
SLD-0
 62
   179
100
AcDbLine
 10
113.357
 20
80.3176
 30
0.0
 11
99.3581
 21
80.3176
 31
0.0
  0
LINE
  5
160
330
1F
100
AcDbEntity
  8
SLD-0
 62
   179
100
AcDbLine
 10
99.3581
 20
80.3176
 30
0.0
 11
99.3581
 21
94.3169
 31
0.0
  0
LINE
  5
161
330
1F
100
AcDbEntity
  8
SLD-0
 62
   179
100
AcDbLine
 10
80.3081
 20
94.3169
 30
0.0
 11
94.3088
 21
94.3169
 31
0.0
  0
LINE
  5
162
330
1F
100
AcDbEntity
  8
SLD-0
 62
   179
100
AcDbLine
 10
94.3088
 20
94.3169
 30
0.0
 11
94.3088
 21
80.3176
 31
0.0
  0
LINE
  5
163
330
1F
100
AcDbEntity
  8
SLD-0
 62
   179
100
AcDbLine
 10
94.3088
 20
80.3176
 30
0.0
 11
80.3081
 21
80.3176
 31
0.0
  0
LINE
  5
164
330
1F
100
AcDbEntity
  8
SLD-0
 62
   179
100
AcDbLine
 10
80.3081
 20
80.3176
 30
0.0
 11
80.3081
 21
94.3169
 31
0.0
  0
LINE
  5
165
330
1F
100
AcDbEntity
  8
SLD-0
 62
   179
100
AcDbLine
 10
61.2581
 20
94.3169
 30
0.0
 11
75.2588
 21
94.3169
 31
0.0
  0
LINE
  5
166
330
1F
100
AcDbEntity
  8
SLD-0
 62
   179
100
AcDbLine
 10
75.2588
 20
94.3169
 30
0.0
 11
75.2588
 21
80.3176
 31
0.0
  0
LINE
  5
167
330
1F
100
AcDbEntity
  8
SLD-0
 62
   179
100
AcDbLine
 10
75.2588
 20
80.3176
 30
0.0
 11
61.2581
 21
80.3176
 31
0.0
  0
LINE
  5
168
330
1F
100
AcDbEntity
  8
SLD-0
 62
   179
100
AcDbLine
 10
61.2581
 20
80.3176
 30
0.0
 11
61.2581
 21
94.3169
 31
0.0
  0
LINE
  5
169
330
1F
100
AcDbEntity
  8
SLD-0
 62
   179
100
AcDbLine
 10
42.2081
 20
94.3169
 30
0.0
 11
56.2088
 21
94.3169
 31
0.0
  0
LINE
  5
16A
330
1F
100
AcDbEntity
  8
SLD-0
 62
   179
100
AcDbLine
 10
56.2088
 20
94.3169
 30
0.0
 11
56.2088
 21
80.3176
 31
0.0
  0
LINE
  5
16B
330
1F
100
AcDbEntity
  8
SLD-0
 62
   179
100
AcDbLine
 10
56.2088
 20
80.3176
 30
0.0
 11
42.2081
 21
80.3176
 31
0.0
  0
LINE
  5
16C
330
1F
100
AcDbEntity
  8
SLD-0
 62
   179
100
AcDbLine
 10
42.2081
 20
80.3176
 30
0.0
 11
42.2081
 21
94.3169
 31
0.0
  0
LINE
  5
16D
330
1F
100
AcDbEntity
  8
SLD-0
 62
   179
100
AcDbLine
 10
23.1579
 20
94.3169
 30
0.0
 11
37.1588
 21
94.3169
 31
0.0
  0
LINE
  5
16E
330
1F
100
AcDbEntity
  8
SLD-0
 62
   179
100
AcDbLine
 10
37.1588
 20
94.3169
 30
0.0
 11
37.1588
 21
80.3176
 31
0.0
  0
LINE
  5
16F
330
1F
100
AcDbEntity
  8
SLD-0
 62
   179
100
AcDbLine
 10
37.1588
 20
80.3176
 30
0.0
 11
23.1579
 21
80.3176
 31
0.0
  0
LINE
  5
170
330
1F
100
AcDbEntity
  8
SLD-0
 62
   179
100
AcDbLine
 10
23.1579
 20
80.3176
 30
0.0
 11
23.1579
 21
94.3169
 31
0.0
  0
LINE
  5
171
330
1F
100
AcDbEntity
  8
SLD-0
 62
   179
100
AcDbLine
 10
4.10792
 20
94.3169
 30
0.0
 11
18.1074
 21
94.3169
 31
0.0
  0
LINE
  5
172
330
1F
100
AcDbEntity
  8
SLD-0
 62
   179
100
AcDbLine
 10
18.1074
 20
94.3169
 30
0.0
 11
18.1074
 21
80.3176
 31
0.0
  0
LINE
  5
173
330
1F
100
AcDbEntity
  8
SLD-0
 62
   179
100
AcDbLine
 10
18.1074
 20
80.3176
 30
0.0
 11
4.10792
 21
80.3176
 31
0.0
  0
LINE
  5
174
330
1F
100
AcDbEntity
  8
SLD-0
 62
   179
100
AcDbLine
 10
4.10792
 20
80.3176
 30
0.0
 11
4.10792
 21
94.3169
 31
0.0
  0
LINE
  5
175
330
1F
100
AcDbEntity
  8
SLD-0
100
AcDbLine
 10
261.7829201054
 20
94.3175642001
 30
0.0
 11
274.7829201054
 21
94.3175642001
 31
0.0
  0
LINE
  5
176
330
1F
100
AcDbEntity
  8
SLD-0
100
AcDbLine
 10
261.7829201054
 20
80.3175642001
 30
0.0
 11
274.7829201054
 21
80.3175642001
 31
0.0
  0
LINE
  5
177
330
1F
100
AcDbEntity
  8
SLD-0
100
AcDbLine
 10
261.2829201054
 20
93.8175642001
 30
0.0
 11
261.2829201054
 21
80.8175642001
 31
0.0
  0
LINE
  5
178
330
1F
100
AcDbEntity
  8
SLD-0
100
AcDbLine
 10
275.2829201054
 20
93.8175642001
 30
0.0
 11
275.2829201054
 21
80.8175642001
 31
0.0
  0
LINE
  5
179
330
1F
100
AcDbEntity
  8
SLD-0
100
AcDbLine
 10
277.2209201054
 20
95.3175642001
 30
0.0
 11
283.2209201054
 21
95.3175642001
 31
0.0
  0
LINE
  5
17A
330
1F
100
AcDbEntity
  8
SLD-0
100
AcDbLine
 10
277.2209201054
 20
78.3175642001
 30
0.0
 11
283.2209201054
 21
78.3175642001
 31
0.0
  0
LINE
  5
17B
330
1F
100
AcDbEntity
  8
SLD-0
100
AcDbLine
 10
276.7209201054
 20
94.8175642001
 30
0.0
 11
276.7209201054
 21
78.8175642001
 31
0.0
  0
LINE
  5
17C
330
1F
100
AcDbEntity
  8
SLD-0
100
AcDbLine
 10
283.7209201054
 20
94.8175642001
 30
0.0
 11
283.7209201054
 21
78.8175642001
 31
0.0
  0
LINE
  5
17D
330
1F
100
AcDbEntity
  8
SLD-0
100
AcDbLine
 10
253.3449201054
 20
95.3175642001
 30
0.0
 11
259.3449201054
 21
95.3175642001
 31
0.0
  0
LINE
  5
17E
330
1F
100
AcDbEntity
  8
SLD-0
100
AcDbLine
 10
253.3449201054
 20
78.3175642001
 30
0.0
 11
259.3449201054
 21
78.3175642001
 31
0.0
  0
LINE
  5
17F
330
1F
100
AcDbEntity
  8
SLD-0
100
AcDbLine
 10
252.8449201054
 20
94.8175642001
 30
0.0
 11
252.8449201054
 21
78.8175642001
 31
0.0
  0
LINE
  5
180
330
1F
100
AcDbEntity
  8
SLD-0
100
AcDbLine
 10
259.8449201054
 20
94.8175642001
 30
0.0
 11
259.8449201054
 21
78.8175642001
 31
0.0
  0
LINE
  5
181
330
1F
100
AcDbEntity
  8
SLD-0
100
AcDbLine
 10
259.4016701054
 20
56.2175642001
 30
0.0
 11
272.4016701054
 21
56.2175642001
 31
0.0
  0
LINE
  5
182
330
1F
100
AcDbEntity
  8
SLD-0
100
AcDbLine
 10
259.4016701054
 20
42.2175642001
 30
0.0
 11
272.4016701054
 21
42.2175642001
 31
0.0
  0
LINE
  5
183
330
1F
100
AcDbEntity
  8
SLD-0
100
AcDbLine
 10
258.9016701054
 20
55.7175642001
 30
0.0
 11
258.9016701054
 21
42.7175642001
 31
0.0
  0
LINE
  5
184
330
1F
100
AcDbEntity
  8
SLD-0
100
AcDbLine
 10
272.9016701054
 20
55.7175642001
 30
0.0
 11
272.9016701054
 21
42.7175642001
 31
0.0
  0
LINE
  5
185
330
1F
100
AcDbEntity
  8
SLD-0
100
AcDbLine
 10
274.8396701054
 20
58.2175642001
 30
0.0
 11
280.8396701054
 21
58.2175642001
 31
0.0
  0
LINE
  5
186
330
1F
100
AcDbEntity
  8
SLD-0
100
AcDbLine
 10
274.8396701054
 20
40.2175642001
 30
0.0
 11
280.8396701054
 21
40.2175642001
 31
0.0
  0
LINE
  5
187
330
1F
100
AcDbEntity
  8
SLD-0
100
AcDbLine
 10
274.3396701054
 20
57.7175642001
 30
0.0
 11
274.3396701054
 21
40.7175642001
 31
0.0
  0
LINE
  5
188
330
1F
100
AcDbEntity
  8
SLD-0
100
AcDbLine
 10
281.3396701054
 20
57.7175642001
 30
0.0
 11
281.3396701054
 21
40.7175642001
 31
0.0
  0
LINE
  5
189
330
1F
100
AcDbEntity
  8
SLD-0
100
AcDbLine
 10
250.9636701054
 20
58.2175642001
 30
0.0
 11
256.9636701054
 21
58.2175642001
 31
0.0
  0
LINE
  5
18A
330
1F
100
AcDbEntity
  8
SLD-0
100
AcDbLine
 10
250.9636701054
 20
40.2175642001
 30
0.0
 11
256.9636701054
 21
40.2175642001
 31
0.0
  0
LINE
  5
18B
330
1F
100
AcDbEntity
  8
SLD-0
100
AcDbLine
 10
250.4636701054
 20
57.7175642001
 30
0.0
 11
250.4636701054
 21
40.7175642001
 31
0.0
  0
LINE
  5
18C
330
1F
100
AcDbEntity
  8
SLD-0
100
AcDbLine
 10
257.4636701054
 20
57.7175642001
 30
0.0
 11
257.4636701054
 21
40.7175642001
 31
0.0
  0
LINE
  5
18D
330
1F
100
AcDbEntity
  8
SLD-0
100
AcDbLine
 10
16.5141701054
 20
37.1675642001
 30
0.0
 11
29.5141701054
 21
37.1675642001
 31
0.0
  0
LINE
  5
18E
330
1F
100
AcDbEntity
  8
SLD-0
100
AcDbLine
 10
16.5141701054
 20
23.1675642001
 30
0.0
 11
29.5141701054
 21
23.1675642001
 31
0.0
  0
LINE
  5
18F
330
1F
100
AcDbEntity
  8
SLD-0
100
AcDbLine
 10
16.0141701054
 20
36.6675642001
 30
0.0
 11
16.0141701054
 21
23.6675642001
 31
0.0
  0
LINE
  5
190
330
1F
100
AcDbEntity
  8
SLD-0
100
AcDbLine
 10
30.0141701054
 20
36.6675642001
 30
0.0
 11
30.0141701054
 21
23.6675642001
 31
0.0
  0
LINE
  5
191
330
1F
100
AcDbEntity
  8
SLD-0
100
AcDbLine
 10
31.9521701054
 20
39.1675642001
 30
0.0
 11
37.9521701054
 21
39.1675642001
 31
0.0
  0
LINE
  5
192
330
1F
100
AcDbEntity
  8
SLD-0
100
AcDbLine
 10
31.9521701054
 20
21.1675642001
 30
0.0
 11
37.9521701054
 21
21.1675642001
 31
0.0
  0
LINE
  5
193
330
1F
100
AcDbEntity
  8
SLD-0
100
AcDbLine
 10
31.4521701054
 20
38.6675642001
 30
0.0
 11
31.4521701054
 21
21.6675642001
 31
0.0
  0
LINE
  5
194
330
1F
100
AcDbEntity
  8
SLD-0
100
AcDbLine
 10
38.4521701054
 20
38.6675642001
 30
0.0
 11
38.4521701054
 21
21.6675642001
 31
0.0
  0
LINE
  5
195
330
1F
100
AcDbEntity
  8
SLD-0
100
AcDbLine
 10
8.0761701054
 20
39.1675642001
 30
0.0
 11
14.0761701054
 21
39.1675642001
 31
0.0
  0
LINE
  5
196
330
1F
100
AcDbEntity
  8
SLD-0
100
AcDbLine
 10
8.0761701054
 20
21.1675642001
 30
0.0
 11
14.0761701054
 21
21.1675642001
 31
0.0
  0
LINE
  5
197
330
1F
100
AcDbEntity
  8
SLD-0
100
AcDbLine
 10
7.5761701054
 20
38.6675642001
 30
0.0
 11
7.5761701054
 21
21.6675642001
 31
0.0
  0
LINE
  5
198
330
1F
100
AcDbEntity
  8
SLD-0
100
AcDbLine
 10
14.5761701054
 20
38.6675642001
 30
0.0
 11
14.5761701054
 21
21.6675642001
 31
0.0
  0
LINE
  5
199
330
1F
100
AcDbEntity
  8
SLD-0
100
AcDbLine
 10
126.0516701054
 20
18.1175642001
 30
0.0
 11
139.0516701054
 21
18.1175642001
 31
0.0
  0
LINE
  5
19A
330
1F
100
AcDbEntity
  8
SLD-0
100
AcDbLine
 10
126.0516701054
 20
4.1175642001
 30
0.0
 11
139.0516701054
 21
4.1175642001
 31
0.0
  0
LINE
  5
19B
330
1F
100
AcDbEntity
  8
SLD-0
100
AcDbLine
 10
125.5516701054
 20
17.6175642001
 30
0.0
 11
125.5516701054
 21
4.6175642001
 31
0.0
  0
LINE
  5
19C
330
1F
100
AcDbEntity
  8
SLD-0
100
AcDbLine
 10
139.5516701054
 20
17.6175642001
 30
0.0
 11
139.5516701054
 21
4.6175642001
 31
0.0
  0
LINE
  5
19D
330
1F
100
AcDbEntity
  8
SLD-0
100
AcDbLine
 10
179.5516701054
 20
20.1175642001
 30
0.0
 11
185.5516701054
 21
20.1175642001
 31
0.0
  0
LINE
  5
19E
330
1F
100
AcDbEntity
  8
SLD-0
100
AcDbLine
 10
179.5516701054
 20
3.1175642001
 30
0.0
 11
185.5516701054
 21
3.1175642001
 31
0.0
  0
LINE
  5
19F
330
1F
100
AcDbEntity
  8
SLD-0
100
AcDbLine
 10
179.0516701054
 20
19.6175642001
 30
0.0
 11
179.0516701054
 21
3.6175642001
 31
0.0
  0
LINE
  5
1A0
330
1F
100
AcDbEntity
  8
SLD-0
100
AcDbLine
 10
186.0516701054
 20
19.6175642001
 30
0.0
 11
186.0516701054
 21
3.6175642001
 31
0.0
  0
LINE
  5
1A1
330
1F
100
AcDbEntity
  8
SLD-0
100
AcDbLine
 10
79.5516701054
 20
20.1175642001
 30
0.0
 11
85.5516701054
 21
20.1175642001
 31
0.0
  0
LINE
  5
1A2
330
1F
100
AcDbEntity
  8
SLD-0
100
AcDbLine
 10
79.5516701054
 20
3.1175642001
 30
0.0
 11
85.5516701054
 21
3.1175642001
 31
0.0
  0
LINE
  5
1A3
330
1F
100
AcDbEntity
  8
SLD-0
100
AcDbLine
 10
79.0516701054
 20
19.6175642001
 30
0.0
 11
79.0516701054
 21
3.6175642001
 31
0.0
  0
LINE
  5
1A4
330
1F
100
AcDbEntity
  8
SLD-0
100
AcDbLine
 10
86.0516701054
 20
19.6175642001
 30
0.0
 11
86.0516701054
 21
3.6175642001
 31
0.0
  0
LINE
  5
1A5
330
1F
100
AcDbEntity
  8
SLD-0_0
100
AcDbLine
 10
1.58337
 20
1.59026
 30
0.0
 11
1.58337
 21
96.8417
 31
0.0
  0
LINE
  5
1A6
330
1F
100
AcDbEntity
  8
SLD-0_0
100
AcDbLine
 10
1.58337
 20
96.8417
 30
0.0
 11
306.385
 21
96.8417
 31
0.0
  0
LINE
  5
1A7
330
1F
100
AcDbEntity
  8
SLD-0_0
100
AcDbLine
 10
306.385
 20
96.8417
 30
0.0
 11
306.385
 21
1.59163
 31
0.0
  0
LINE
  5
1A8
330
1F
100
AcDbEntity
  8
SLD-0_0
100
AcDbLine
 10
306.385
 20
1.59163
 30
0.0
 11
1.58337
 21
1.59026
 31
0.0
  0
CIRCLE
  5
1A9
330
1F
100
AcDbEntity
  8
SLD-0
100
AcDbCircle
 10
287.335
 20
77.7917
 30
0.0
 40
1.249999999999943
  0
CIRCLE
  5
1AA
330
1F
100
AcDbEntity
  8
SLD-0
100
AcDbCircle
 10
287.335
 20
39.6917
 30
0.0
 40
1.249999999999943
  0
CIRCLE
  5
1AB
330
1F
100
AcDbEntity
  8
SLD-0
100
AcDbCircle
 10
268.285
 20
20.6417
 30
0.0
 40
1.25
  0
CIRCLE
  5
1AC
330
1F
100
AcDbEntity
  8
SLD-0
100
AcDbCircle
 10
239.71
 20
58.7417
 30
0.0
 40
1.249999999999972
  0
CIRCLE
  5
1AD
330
1F
100
AcDbEntity
  8
SLD-0
100
AcDbCircle
 10
192.085
 20
77.7917
 30
0.0
 40
1.25
  0
CIRCLE
  5
1AE
330
1F
100
AcDbEntity
  8
SLD-0
100
AcDbCircle
 10
196.848
 20
20.6417
 30
0.0
 40
1.249999999999972
  0
CIRCLE
  5
1AF
330
1F
100
AcDbEntity
  8
SLD-0
100
AcDbCircle
 10
149.223
 20
39.6917
 30
0.0
 40
1.25
  0
CIRCLE
  5
1B0
330
1F
100
AcDbEntity
  8
SLD-0
100
AcDbCircle
 10
115.885
 20
77.7917
 30
0.0
 40
1.25
  0
CIRCLE
  5
1B1
330
1F
100
AcDbEntity
  8
SLD-0
100
AcDbCircle
 10
68.26
 20
58.7417
 30
0.0
 40
1.249999999999986
  0
CIRCLE
  5
1B2
330
1F
100
AcDbEntity
  8
SLD-0
100
AcDbCircle
 10
20.635
 20
77.7917
 30
0.0
 40
1.249999999999996
  0
CIRCLE
  5
1B3
330
1F
100
AcDbEntity
  8
SLD-0
100
AcDbCircle
 10
26.886
 20
39.6917
 30
0.0
 40
1.249999999999993
  0
CIRCLE
  5
1B4
330
1F
100
AcDbEntity
  8
SLD-0
100
AcDbCircle
 10
44.448
 20
20.6417
 30
0.0
 40
1.249999999999993
  0
ARC
  5
1B5
330
1F
100
AcDbEntity
  8
SLD-0
100
AcDbCircle
 10
261.7829201054
 20
93.8175642001
 30
0.0
 40
0.5000000000000142
100
AcDbArc
 50
90.0
 51
180.0
  0
ARC
  5
1B6
330
1F
100
AcDbEntity
  8
SLD-0
100
AcDbCircle
 10
274.7829201054
 20
93.8175642001
 30
0.0
 40
0.5000000000000142
100
AcDbArc
 50
0.0
 51
90.0
  0
ARC
  5
1B7
330
1F
100
AcDbEntity
  8
SLD-0
100
AcDbCircle
 10
261.7829201054
 20
80.8175642001
 30
0.0
 40
0.5000000000000142
100
AcDbArc
 50
180.0
 51
270.0
  0
ARC
  5
1B8
330
1F
100
AcDbEntity
  8
SLD-0
100
AcDbCircle
 10
274.7829201054
 20
80.8175642001
 30
0.0
 40
0.5000000000000142
100
AcDbArc
 50
270.0
 51
0.0
  0
ARC
  5
1B9
330
1F
100
AcDbEntity
  8
SLD-0
100
AcDbCircle
 10
277.2209201054
 20
94.8175642001
 30
0.0
 40
0.5000000000000142
100
AcDbArc
 50
90.0
 51
180.0
  0
ARC
  5
1BA
330
1F
100
AcDbEntity
  8
SLD-0
100
AcDbCircle
 10
283.2209201054
 20
94.8175642001
 30
0.0
 40
0.5000000000000142
100
AcDbArc
 50
0.0
 51
90.0
  0
ARC
  5
1BB
330
1F
100
AcDbEntity
  8
SLD-0
100
AcDbCircle
 10
277.2209201054
 20
78.8175642001
 30
0.0
 40
0.5
100
AcDbArc
 50
180.0
 51
270.0
  0
ARC
  5
1BC
330
1F
100
AcDbEntity
  8
SLD-0
100
AcDbCircle
 10
283.2209201054
 20
78.8175642001
 30
0.0
 40
0.5
100
AcDbArc
 50
270.0
 51
0.0
  0
ARC
  5
1BD
330
1F
100
AcDbEntity
  8
SLD-0
100
AcDbCircle
 10
253.3449201054
 20
94.8175642001
 30
0.0
 40
0.5000000000000284
100
AcDbArc
 50
90.0
 51
180.0
  0
ARC
  5
1BE
330
1F
100
AcDbEntity
  8
SLD-0
100
AcDbCircle
 10
259.3449201054
 20
94.8175642001
 30
0.0
 40
0.5000000000000142
100
AcDbArc
 50
0.0
 51
90.0
  0
ARC
  5
1BF
330
1F
100
AcDbEntity
  8
SLD-0
100
AcDbCircle
 10
253.3449201054
 20
78.8175642001
 30
0.0
 40
0.5000000000000284
100
AcDbArc
 50
180.0
 51
270.0
  0
ARC
  5
1C0
330
1F
100
AcDbEntity
  8
SLD-0
100
AcDbCircle
 10
259.3449201054
 20
78.8175642001
 30
0.0
 40
0.5
100
AcDbArc
 50
270.0
 51
0.0
  0
ARC
  5
1C1
330
1F
100
AcDbEntity
  8
SLD-0
100
AcDbCircle
 10
259.4016701054
 20
55.7175642001
 30
0.0
 40
0.5
100
AcDbArc
 50
90.0
 51
180.0
  0
ARC
  5
1C2
330
1F
100
AcDbEntity
  8
SLD-0
100
AcDbCircle
 10
272.4016701054
 20
55.7175642001
 30
0.0
 40
0.5
100
AcDbArc
 50
0.0
 51
90.0
  0
ARC
  5
1C3
330
1F
100
AcDbEntity
  8
SLD-0
100
AcDbCircle
 10
259.4016701054
 20
42.7175642001
 30
0.0
 40
0.5
100
AcDbArc
 50
180.0
 51
270.0
  0
ARC
  5
1C4
330
1F
100
AcDbEntity
  8
SLD-0
100
AcDbCircle
 10
272.4016701054
 20
42.7175642001
 30
0.0
 40
0.5
100
AcDbArc
 50
270.0
 51
0.0
  0
ARC
  5
1C5
330
1F
100
AcDbEntity
  8
SLD-0
100
AcDbCircle
 10
274.8396701054
 20
57.7175642001
 30
0.0
 40
0.5
100
AcDbArc
 50
90.0
 51
180.0
  0
ARC
  5
1C6
330
1F
100
AcDbEntity
  8
SLD-0
100
AcDbCircle
 10
280.8396701054
 20
57.7175642001
 30
0.0
 40
0.5
100
AcDbArc
 50
0.0
 51
90.0
  0
ARC
  5
1C7
330
1F
100
AcDbEntity
  8
SLD-0
100
AcDbCircle
 10
274.8396701054
 20
40.7175642001
 30
0.0
 40
0.5
100
AcDbArc
 50
180.0
 51
270.0
  0
ARC
  5
1C8
330
1F
100
AcDbEntity
  8
SLD-0
100
AcDbCircle
 10
280.8396701054
 20
40.7175642001
 30
0.0
 40
0.5
100
AcDbArc
 50
270.0
 51
0.0
  0
ARC
  5
1C9
330
1F
100
AcDbEntity
  8
SLD-0
100
AcDbCircle
 10
250.9636701054
 20
57.7175642001
 30
0.0
 40
0.5
100
AcDbArc
 50
90.0
 51
180.0
  0
ARC
  5
1CA
330
1F
100
AcDbEntity
  8
SLD-0
100
AcDbCircle
 10
256.9636701054
 20
57.7175642001
 30
0.0
 40
0.5
100
AcDbArc
 50
0.0
 51
90.0
  0
ARC
  5
1CB
330
1F
100
AcDbEntity
  8
SLD-0
100
AcDbCircle
 10
250.9636701054
 20
40.7175642001
 30
0.0
 40
0.5
100
AcDbArc
 50
180.0
 51
270.0
  0
ARC
  5
1CC
330
1F
100
AcDbEntity
  8
SLD-0
100
AcDbCircle
 10
256.9636701054
 20
40.7175642001
 30
0.0
 40
0.5
100
AcDbArc
 50
270.0
 51
0.0
  0
ARC
  5
1CD
330
1F
100
AcDbEntity
  8
SLD-0
100
AcDbCircle
 10
16.5141701054
 20
36.6675642001
 30
0.0
 40
0.5
100
AcDbArc
 50
90.0
 51
180.0
  0
ARC
  5
1CE
330
1F
100
AcDbEntity
  8
SLD-0
100
AcDbCircle
 10
29.5141701054
 20
36.6675642001
 30
0.0
 40
0.5
100
AcDbArc
 50
0.0
 51
90.0
  0
ARC
  5
1CF
330
1F
100
AcDbEntity
  8
SLD-0
100
AcDbCircle
 10
16.5141701054
 20
23.6675642001
 30
0.0
 40
0.5
100
AcDbArc
 50
180.0
 51
270.0
  0
ARC
  5
1D0
330
1F
100
AcDbEntity
  8
SLD-0
100
AcDbCircle
 10
29.5141701054
 20
23.6675642001
 30
0.0
 40
0.5
100
AcDbArc
 50
270.0
 51
0.0
  0
ARC
  5
1D1
330
1F
100
AcDbEntity
  8
SLD-0
100
AcDbCircle
 10
31.9521701054
 20
38.6675642001
 30
0.0
 40
0.5
100
AcDbArc
 50
90.0
 51
180.0
  0
ARC
  5
1D2
330
1F
100
AcDbEntity
  8
SLD-0
100
AcDbCircle
 10
37.9521701054
 20
38.6675642001
 30
0.0
 40
0.5
100
AcDbArc
 50
0.0
 51
90.0
  0
ARC
  5
1D3
330
1F
100
AcDbEntity
  8
SLD-0
100
AcDbCircle
 10
31.9521701054
 20
21.6675642001
 30
0.0
 40
0.5
100
AcDbArc
 50
180.0
 51
270.0
  0
ARC
  5
1D4
330
1F
100
AcDbEntity
  8
SLD-0
100
AcDbCircle
 10
37.9521701054
 20
21.6675642001
 30
0.0
 40
0.5
100
AcDbArc
 50
270.0
 51
0.0
  0
ARC
  5
1D5
330
1F
100
AcDbEntity
  8
SLD-0
100
AcDbCircle
 10
8.0761701054
 20
38.6675642001
 30
0.0
 40
0.5
100
AcDbArc
 50
90.0
 51
180.0
  0
ARC
  5
1D6
330
1F
100
AcDbEntity
  8
SLD-0
100
AcDbCircle
 10
14.0761701054
 20
38.6675642001
 30
0.0
 40
0.5
100
AcDbArc
 50
0.0
 51
90.0
  0
ARC
  5
1D7
330
1F
100
AcDbEntity
  8
SLD-0
100
AcDbCircle
 10
8.0761701054
 20
21.6675642001
 30
0.0
 40
0.5
100
AcDbArc
 50
180.0
 51
270.0
  0
ARC
  5
1D8
330
1F
100
AcDbEntity
  8
SLD-0
100
AcDbCircle
 10
14.0761701054
 20
21.6675642001
 30
0.0
 40
0.5
100
AcDbArc
 50
270.0
 51
0.0
  0
ARC
  5
1D9
330
1F
100
AcDbEntity
  8
SLD-0
100
AcDbCircle
 10
126.0516701054
 20
17.6175642001
 30
0.0
 40
0.5
100
AcDbArc
 50
90.0
 51
180.0
  0
ARC
  5
1DA
330
1F
100
AcDbEntity
  8
SLD-0
100
AcDbCircle
 10
139.0516701054
 20
17.6175642001
 30
0.0
 40
0.5
100
AcDbArc
 50
0.0
 51
90.0
  0
ARC
  5
1DB
330
1F
100
AcDbEntity
  8
SLD-0
100
AcDbCircle
 10
126.0516701054
 20
4.6175642001
 30
0.0
 40
0.5
100
AcDbArc
 50
180.0
 51
270.0
  0
ARC
  5
1DC
330
1F
100
AcDbEntity
  8
SLD-0
100
AcDbCircle
 10
139.0516701054
 20
4.6175642001
 30
0.0
 40
0.5
100
AcDbArc
 50
270.0
 51
0.0
  0
ARC
  5
1DD
330
1F
100
AcDbEntity
  8
SLD-0
100
AcDbCircle
 10
179.5516701054
 20
19.6175642001
 30
0.0
 40
0.5
100
AcDbArc
 50
90.0
 51
180.0
  0
ARC
  5
1DE
330
1F
100
AcDbEntity
  8
SLD-0
100
AcDbCircle
 10
185.5516701054
 20
19.6175642001
 30
0.0
 40
0.5
100
AcDbArc
 50
0.0
 51
90.0
  0
ARC
  5
1DF
330
1F
100
AcDbEntity
  8
SLD-0
100
AcDbCircle
 10
179.5516701054
 20
3.6175642001
 30
0.0
 40
0.5
100
AcDbArc
 50
180.0
 51
270.0
  0
ARC
  5
1E0
330
1F
100
AcDbEntity
  8
SLD-0
100
AcDbCircle
 10
185.5516701054
 20
3.6175642001
 30
0.0
 40
0.5
100
AcDbArc
 50
270.0
 51
0.0
  0
ARC
  5
1E1
330
1F
100
AcDbEntity
  8
SLD-0
100
AcDbCircle
 10
79.5516701054
 20
19.6175642001
 30
0.0
 40
0.5000000000000142
100
AcDbArc
 50
90.0
 51
180.0
  0
ARC
  5
1E2
330
1F
100
AcDbEntity
  8
SLD-0
100
AcDbCircle
 10
85.5516701054
 20
19.6175642001
 30
0.0
 40
0.5
100
AcDbArc
 50
0.0
 51
90.0
  0
ARC
  5
1E3
330
1F
100
AcDbEntity
  8
SLD-0
100
AcDbCircle
 10
79.5516701054
 20
3.6175642001
 30
0.0
 40
0.5000000000000142
100
AcDbArc
 50
180.0
 51
270.0
  0
ARC
  5
1E4
330
1F
100
AcDbEntity
  8
SLD-0
100
AcDbCircle
 10
85.5516701054
 20
3.6175642001
 30
0.0
 40
0.5
100
AcDbArc
 50
270.0
 51
0.0
  0
MTEXT
  5
1E6
330
1F
100
AcDbEntity
  8
0
  6
Continuous
 62
     7
100
AcDbMText
 10
0.0
 20
1.6405296445
 30
0.0
 40
0.5882
 41
0.0
 71
     1
 72
     1
  1
SOLIDWORKS Educational Product.
  7
SLDTEXTSTYLE0
 73
     1
 44
1.0
  0
MTEXT
  5
1E7
330
1F
100
AcDbEntity
  8
0
  6
Continuous
 62
     7
100
AcDbMText
 10
0.0
 20
0.7582296445
 30
0.0
 40
0.5882
 41
0.0
 71
     1
 72
     1
  1
For Instructional Use Only.
  7
SLDTEXTSTYLE0
 73
     1
 44
1.0
  0
MTEXT
  5
1E8
330
1B
100
AcDbEntity
 67
     1
  8
SLD-0_0
 62
   179
100
AcDbMText
 10
0.0
 20
1.5965198566
 30
0.0
 40
0.5882
 41
0.0
 71
     1
 72
     1
  1
SOLIDWORKS Educational Product.
  7
SLDTEXTSTYLE0
 73
     1
 44
1.0
  0
MTEXT
  5
1E9
330
1B
100
AcDbEntity
 67
     1
  8
SLD-0_0
 62
   179
100
AcDbMText
 10
0.0
 20
0.7142198566
 30
0.0
 40
0.5882
 41
0.0
 71
     1
 72
     1
  1
For Instructional Use Only.
  7
SLDTEXTSTYLE0
 73
     1
 44
1.0
  0
MTEXT
  5
1EA
330
1B
100
AcDbEntity
 67
     1
  8
0
  6
Continuous
 62
     7
100
AcDbMText
 10
0.0
 20
1.6405296445
 30
0.0
 40
0.5882
 41
0.0
 71
     1
 72
     1
  1
SOLIDWORKS Educational Product.
  7
SLDTEXTSTYLE0
 73
     1
 44
1.0
  0
MTEXT
  5
1EB
330
1B
100
AcDbEntity
 67
     1
  8
0
  6
Continuous
 62
     7
100
AcDbMText
 10
0.0
 20
0.7582296445
 30
0.0
 40
0.5882
 41
0.0
 71
     1
 72
     1
  1
For Instructional Use Only.
  7
SLDTEXTSTYLE0
 73
     1
 44
1.0
  0
ENDSEC
  0
SECTION
  2
OBJECTS
  0
DICTIONARY
  5
C
330
0
100
AcDbDictionary
281
     1
  3
ACAD_GROUP
350
D
  3
ACAD_LAYOUT
350
1A
  3
ACAD_MLINESTYLE
350
17
  3
ACAD_PLOTSETTINGS
350
19
  3
ACAD_PLOTSTYLENAME
350
E
  3
ACAD_SCALELIST
350
47
  3
DWGPROPS
350
1EC
  0
DICTIONARY
  5
D
102
{ACAD_REACTORS
330
C
102
}
330
C
100
AcDbDictionary
281
     1
  0
DICTIONARY
  5
1A
102
{ACAD_REACTORS
330
C
102
}
330
C
100
AcDbDictionary
281
     1
  3
Model
350
22
  3
Sheet1
350
1E
  0
DICTIONARY
  5
17
102
{ACAD_REACTORS
330
C
102
}
330
C
100
AcDbDictionary
281
     1
  3
Standard
350
18
  0
DICTIONARY
  5
19
102
{ACAD_REACTORS
330
C
102
}
330
C
100
AcDbDictionary
281
     1
  0
ACDBDICTIONARYWDFLT
  5
E
102
{ACAD_REACTORS
330
C
102
}
330
C
100
AcDbDictionary
281
     1
  3
Normal
350
F
100
AcDbDictionaryWithDefault
340
F
  0
DICTIONARY
  5
47
102
{ACAD_REACTORS
330
C
102
}
330
C
100
AcDbDictionary
281
     1
  3
A0
350
48
  3
A1
350
49
  3
A2
350
4A
  3
A3
350
4B
  3
A4
350
4C
  3
A5
350
4D
  3
A6
350
4E
  3
A7
350
4F
  3
A8
350
50
  3
A9
350
51
  3
B0
350
52
  3
B1
350
53
  3
B2
350
54
  3
B3
350
55
  3
B4
350
56
  3
B5
350
57
  3
B6
350
58
  3
B7
350
59
  3
B8
350
5A
  3
B9
350
5B
  3
C0
350
5C
  3
C1
350
5D
  3
C2
350
5E
  3
C3
350
5F
  3
C4
350
60
  3
C5
350
61
  3
C6
350
62
  3
C7
350
63
  3
C8
350
64
  3
C9
350
65
  3
D0
350
66
  3
D1
350
67
  3
D2
350
68
  0
XRECORD
  5
1EC
102
{ACAD_REACTORS
330
C
102
}
330
C
100
AcDbXrecord
280
     1
  1
DWGPROPS COOKIE
  2

  3

  4

  6

  7

  8
Neil
  9

300
=
301
=
302
=
303
=
304
=
305
=
306
=
307
=
308
=
309
=
 40
0.0
 41
2459538.854114352
 42
2459538.85411691
  1

 90
        0
  0
LAYOUT
  5
22
102
{ACAD_REACTORS
330
1A
102
}
330
1A
100
AcDbPlotSettings
  1

  2
none_device
  4
Letter_(8.50_x_11.00_Inches)
  6

 40
6.35
 41
6.35
 42
6.35000508
 43
6.35000508
 44
215.9
 45
279.4
 46
0.0
 47
0.0
 48
0.0
 49
0.0
140
0.0
141
0.0
142
1.0
143
1.0
 70
  1712
 72
     0
 73
     0
 74
     0
  7

 75
     0
147
1.0
148
0.0
149
0.0
100
AcDbLayout
  1
Model
 70
     1
 71
     0
 10
0.0
 20
0.0
 11
44.0
 21
34.0
 12
0.0
 22
0.0
 32
0.0
 14
0.0
 24
0.0
 34
0.0
 15
44.0
 25
34.0
 35
0.0
146
0.0
 13
0.0
 23
0.0
 33
0.0
 16
1.0
 26
0.0
 36
0.0
 17
0.0
 27
1.0
 37
0.0
 76
     0
330
1F
331
29
  0
LAYOUT
  5
1E
102
{ACAD_REACTORS
330
1A
102
}
330
1A
100
AcDbPlotSettings
  1

  2
none_device
  4
ANSI_E_(44.00_x_34.00_Inches)
  6

 40
6.35
 41
19.05
 42
6.3499746
 43
19.0499873
 44
1117.6
 45
863.6
 46
0.0
 47
0.0
 48
0.0
 49
0.0
140
0.0
141
0.0
142
1.0
143
1.0
 70
  4832
 72
     0
 73
     0
 74
     1
  7

 75
     0
147
1.0
148
0.0
149
0.0
100
AcDbLayout
  1
Sheet1
 70
     1
 71
     1
 10
0.0
 20
0.0
 11
44.0
 21
34.0
 12
0.0
 22
0.0
 32
0.0
 14
0.0
 24
0.0
 34
0.0
 15
44.0
 25
34.0
 35
0.0
146
0.0
 13
0.0
 23
0.0
 33
0.0
 16
1.0
 26
0.0
 36
0.0
 17
0.0
 27
1.0
 37
0.0
 76
     0
330
1B
  0
MLINESTYLE
  5
18
102
{ACAD_REACTORS
330
17
102
}
330
17
100
AcDbMlineStyle
  2
Standard
 70
     0
  3

 62
   256
 51
90.0
 52
90.0
 71
     2
 49
0.5
 62
   256
  6
BYLAYER
 49
-0.5
 62
   256
  6
BYLAYER
  0
ACDBPLACEHOLDER
  5
F
102
{ACAD_REACTORS
330
E
102
}
330
E
  0
SCALE
  5
48
102
{ACAD_REACTORS
330
47
102
}
330
47
100
AcDbScale
 70
     0
300
1:1
140
1.0
141
1.0
290
     1
  0
SCALE
  5
49
102
{ACAD_REACTORS
330
47
102
}
330
47
100
AcDbScale
 70
     0
300
1:2
140
1.0
141
2.0
290
     0
  0
SCALE
  5
4A
102
{ACAD_REACTORS
330
47
102
}
330
47
100
AcDbScale
 70
     0
300
1:4
140
1.0
141
4.0
290
     0
  0
SCALE
  5
4B
102
{ACAD_REACTORS
330
47
102
}
330
47
100
AcDbScale
 70
     0
300
1:5
140
1.0
141
5.0
290
     0
  0
SCALE
  5
4C
102
{ACAD_REACTORS
330
47
102
}
330
47
100
AcDbScale
 70
     0
300
1:8
140
1.0
141
8.0
290
     0
  0
SCALE
  5
4D
102
{ACAD_REACTORS
330
47
102
}
330
47
100
AcDbScale
 70
     0
300
1:10
140
1.0
141
10.0
290
     0
  0
SCALE
  5
4E
102
{ACAD_REACTORS
330
47
102
}
330
47
100
AcDbScale
 70
     0
300
1:16
140
1.0
141
16.0
290
     0
  0
SCALE
  5
4F
102
{ACAD_REACTORS
330
47
102
}
330
47
100
AcDbScale
 70
     0
300
1:20
140
1.0
141
20.0
290
     0
  0
SCALE
  5
50
102
{ACAD_REACTORS
330
47
102
}
330
47
100
AcDbScale
 70
     0
300
1:30
140
1.0
141
30.0
290
     0
  0
SCALE
  5
51
102
{ACAD_REACTORS
330
47
102
}
330
47
100
AcDbScale
 70
     0
300
1:40
140
1.0
141
40.0
290
     0
  0
SCALE
  5
52
102
{ACAD_REACTORS
330
47
102
}
330
47
100
AcDbScale
 70
     0
300
1:50
140
1.0
141
50.0
290
     0
  0
SCALE
  5
53
102
{ACAD_REACTORS
330
47
102
}
330
47
100
AcDbScale
 70
     0
300
1:100
140
1.0
141
100.0
290
     0
  0
SCALE
  5
54
102
{ACAD_REACTORS
330
47
102
}
330
47
100
AcDbScale
 70
     0
300
2:1
140
2.0
141
1.0
290
     0
  0
SCALE
  5
55
102
{ACAD_REACTORS
330
47
102
}
330
47
100
AcDbScale
 70
     0
300
4:1
140
4.0
141
1.0
290
     0
  0
SCALE
  5
56
102
{ACAD_REACTORS
330
47
102
}
330
47
100
AcDbScale
 70
     0
300
8:1
140
8.0
141
1.0
290
     0
  0
SCALE
  5
57
102
{ACAD_REACTORS
330
47
102
}
330
47
100
AcDbScale
 70
     0
300
10:1
140
10.0
141
1.0
290
     0
  0
SCALE
  5
58
102
{ACAD_REACTORS
330
47
102
}
330
47
100
AcDbScale
 70
     0
300
100:1
140
100.0
141
1.0
290
     0
  0
SCALE
  5
59
102
{ACAD_REACTORS
330
47
102
}
330
47
100
AcDbScale
 70
     0
300
1/128" = 1'-0"
140
0.0078125
141
12.0
290
     0
  0
SCALE
  5
5A
102
{ACAD_REACTORS
330
47
102
}
330
47
100
AcDbScale
 70
     0
300
1/64" = 1'-0"
140
0.015625
141
12.0
290
     0
  0
SCALE
  5
5B
102
{ACAD_REACTORS
330
47
102
}
330
47
100
AcDbScale
 70
     0
300
1/32" = 1'-0"
140
0.03125
141
12.0
290
     0
  0
SCALE
  5
5C
102
{ACAD_REACTORS
330
47
102
}
330
47
100
AcDbScale
 70
     0
300
1/16" = 1'-0"
140
0.0625
141
12.0
290
     0
  0
SCALE
  5
5D
102
{ACAD_REACTORS
330
47
102
}
330
47
100
AcDbScale
 70
     0
300
3/32" = 1'-0"
140
0.09375
141
12.0
290
     0
  0
SCALE
  5
5E
102
{ACAD_REACTORS
330
47
102
}
330
47
100
AcDbScale
 70
     0
300
1/8" = 1'-0"
140
0.125
141
12.0
290
     0
  0
SCALE
  5
5F
102
{ACAD_REACTORS
330
47
102
}
330
47
100
AcDbScale
 70
     0
300
3/16" = 1'-0"
140
0.1875
141
12.0
290
     0
  0
SCALE
  5
60
102
{ACAD_REACTORS
330
47
102
}
330
47
100
AcDbScale
 70
     0
300
1/4" = 1'-0"
140
0.25
141
12.0
290
     0
  0
SCALE
  5
61
102
{ACAD_REACTORS
330
47
102
}
330
47
100
AcDbScale
 70
     0
300
3/8" = 1'-0"
140
0.375
141
12.0
290
     0
  0
SCALE
  5
62
102
{ACAD_REACTORS
330
47
102
}
330
47
100
AcDbScale
 70
     0
300
1/2" = 1'-0"
140
0.5
141
12.0
290
     0
  0
SCALE
  5
63
102
{ACAD_REACTORS
330
47
102
}
330
47
100
AcDbScale
 70
     0
300
3/4" = 1'-0"
140
0.75
141
12.0
290
     0
  0
SCALE
  5
64
102
{ACAD_REACTORS
330
47
102
}
330
47
100
AcDbScale
 70
     0
300
1" = 1'-0"
140
1.0
141
12.0
290
     0
  0
SCALE
  5
65
102
{ACAD_REACTORS
330
47
102
}
330
47
100
AcDbScale
 70
     0
300
1-1/2" = 1'-0"
140
1.5
141
12.0
290
     0
  0
SCALE
  5
66
102
{ACAD_REACTORS
330
47
102
}
330
47
100
AcDbScale
 70
     0
300
3" = 1'-0"
140
3.0
141
12.0
290
     0
  0
SCALE
  5
67
102
{ACAD_REACTORS
330
47
102
}
330
47
100
AcDbScale
 70
     0
300
6" = 1'-0"
140
6.0
141
12.0
290
     0
  0
SCALE
  5
68
102
{ACAD_REACTORS
330
47
102
}
330
47
100
AcDbScale
 70
     0
300
1'-0" = 1'-0"
140
12.0
141
12.0
290
     0
  0
ENDSEC
  0
EOF
